<svg version="1.1" id="Layer_1" xmlns="http://www.w3.org/2000/svg" xmlns:xlink="http://www.w3.org/1999/xlink" x="0px" y="0px"
	 width="100%" viewBox="0 0 1024 1024" enable-background="new 0 0 1024 1024" xml:space="preserve">
<path fill="#000000" opacity="1.000000" stroke="none" 
	d="
M22.673904,532.062500 
	C21.379490,508.398926 22.467422,485.269470 24.926083,462.247101 
	C28.432301,429.415741 35.100983,397.181396 45.059650,365.665924 
	C70.580246,284.902802 114.105003,215.198212 174.515671,156.036194 
	C216.749390,114.675438 265.205536,82.465492 319.494629,58.981236 
	C359.334045,41.747589 400.900909,30.720007 443.658722,24.008617 
	C469.694855,19.921913 495.955750,18.141680 522.311768,18.909567 
	C624.176086,21.877409 716.675537,52.699703 798.637085,113.499245 
	C854.932373,155.259460 899.953125,207.263550 934.843018,268.048706 
	C963.660278,318.254150 982.369568,372.100830 992.721497,428.935272 
	C998.768372,462.134460 1001.418823,495.654633 1000.024963,529.353027 
	C995.622742,635.778198 960.333679,730.906677 893.684082,813.996704 
	C834.246948,888.095215 759.007507,940.382874 669.762329,972.491699 
	C633.761108,985.444214 596.602417,993.585571 558.482300,997.552856 
	C516.806641,1001.890076 475.453857,1000.487366 434.123108,993.560913 
	C358.604553,980.905029 290.526215,950.886963 228.138016,907.054321 
	C190.807739,880.826843 157.543869,850.305664 128.901459,814.762268 
	C100.589134,779.628479 77.802025,741.220337 60.162907,699.704773 
	C46.037701,666.459595 35.696781,632.087585 29.351555,596.548401 
	C25.575035,575.396362 22.980783,554.083496 22.673904,532.062500 
M337.180054,927.257935 
	C412.481842,959.648865 490.796844,970.093384 571.863770,958.509827 
	C633.275085,949.734863 690.614563,929.158386 743.863525,897.135315 
	C799.936096,863.414307 847.244263,820.296448 884.481750,766.450989 
	C930.966858,699.233582 958.206177,625.173584 963.013245,543.186951 
	C964.971558,509.787354 963.770447,476.594025 958.283447,443.610809 
	C948.158630,382.748444 927.118774,325.860443 894.566895,273.438446 
	C835.502563,178.320190 753.427063,112.045845 646.263489,78.236824 
	C588.944946,60.153393 530.065308,53.518078 470.114685,59.518497 
	C419.378601,64.596642 370.482361,77.138039 324.095764,98.586998 
	C250.803085,132.477234 190.699936,182.338257 144.138443,248.365036 
	C91.613388,322.848480 63.277679,405.800385 58.487823,496.679718 
	C56.517151,534.069885 59.951096,571.196777 67.837646,607.843994 
	C79.374481,661.453308 101.406548,710.605286 131.650146,756.129639 
	C182.956696,833.359070 252.043594,889.387756 337.180054,927.257935 
z"/>
<path fill="#000000" opacity="1.000000" stroke="none" 
	d="
M396.492249,499.542419 
	C425.986084,453.175751 455.283813,407.115112 484.483917,361.208038 
	C487.276123,361.727081 487.849457,363.658295 488.774475,365.119873 
	C525.925049,423.819305 563.097107,482.505280 600.137573,541.274170 
	C611.416992,559.170166 622.387207,577.262573 633.340576,595.360962 
	C635.295166,598.590515 637.521240,600.159607 641.368225,599.857971 
	C645.177734,599.559204 649.039795,599.601685 652.858337,599.832581 
	C657.068176,600.086975 659.224548,598.672852 658.684509,594.172241 
	C658.526794,592.858459 658.668762,591.508911 658.668762,590.175781 
	C658.669861,504.021515 658.670471,417.867249 658.671143,331.712982 
	C658.671143,329.577118 658.671143,327.441254 658.671143,325.497559 
	C661.149353,324.292511 662.261780,325.932526 663.471985,326.849274 
	C676.487061,336.708832 689.392212,346.714813 702.487000,356.466553 
	C705.458740,358.679596 705.339783,361.412842 705.339233,364.412659 
	C705.328369,421.904388 705.329468,479.396088 705.325745,536.887817 
	C705.324707,552.552246 705.311035,568.216614 705.312134,583.881042 
	C705.313110,597.172852 707.839172,599.775391 720.933655,599.784363 
	C753.762207,599.806702 786.590759,599.785156 819.419312,599.813416 
	C821.545532,599.815186 823.749939,599.372192 825.721741,600.405212 
	C826.791443,601.967224 825.651978,602.984253 824.959045,604.049316 
	C817.419983,615.638245 809.786011,627.166443 802.361816,638.828308 
	C800.506897,641.741882 798.021240,641.973572 795.077759,641.972351 
	C751.750854,641.953796 708.423950,641.980835 665.097046,641.988525 
	C649.599365,641.991272 634.101135,641.893921 618.604492,642.017700 
	C614.885681,642.047485 612.567139,640.862366 610.515869,637.571533 
	C574.911621,580.453918 539.179321,523.416077 503.456421,466.372437 
	C497.637939,457.081299 491.730682,447.845795 485.904633,438.648102 
	C483.204773,439.429291 482.492523,441.464417 481.476837,443.066925 
	C452.314758,489.075928 423.764709,535.485168 393.907166,581.037476 
	C366.738312,622.487854 327.988678,644.868042 277.880432,646.377747 
	C215.442474,648.258911 157.142960,608.051086 136.595322,549.559204 
	C120.107452,502.624176 125.974373,457.837219 153.978989,416.685974 
	C177.657822,381.891205 211.024139,361.098999 252.452805,354.214508 
	C295.781860,347.014221 335.089539,357.055817 369.691284,384.459473 
	C375.346161,388.938019 375.196014,389.109985 370.037537,394.188324 
	C363.153961,400.965088 356.304108,407.786530 349.706879,414.838654 
	C346.913025,417.825134 344.986420,418.202423 341.438049,415.641083 
	C309.809753,392.810150 275.218140,387.919800 238.579819,400.639679 
	C194.317535,416.006439 166.487808,458.227234 168.935272,506.269592 
	C171.392410,554.501587 211.371719,597.704651 259.368805,603.835876 
	C305.444031,609.721558 338.679138,590.294678 363.029175,552.719421 
	C374.351776,535.247131 385.221252,517.481262 396.492249,499.542419 
z"/>
<path fill="#000000" opacity="1.000000" stroke="none" 
	d="
M409.712708,630.741089 
	C415.637665,621.651428 421.463898,612.929260 427.039581,604.049805 
	C428.861206,601.148804 431.105927,600.065857 434.424591,600.069641 
	C469.232239,600.109131 504.039948,600.065796 538.847656,600.038208 
	C541.263062,600.036316 543.387390,600.368408 544.871887,602.713806 
	C552.352112,614.531860 559.926880,626.290039 567.456421,638.076904 
	C567.982483,638.900391 568.629272,639.733398 567.846741,641.446167 
	C513.537598,641.446167 458.946625,641.446167 403.929810,641.446167 
	C404.957031,637.060608 407.647430,634.268188 409.712708,630.741089 
z"/>
<path fill="#000000" opacity="1.000000" stroke="none" 
	d="
M908.864014,641.922852 
	C876.311035,641.921448 844.236206,641.921448 812.819641,641.921448 
	C811.415710,639.500488 812.298035,638.593689 812.926392,637.652405 
	C820.137878,626.849670 827.429565,616.099548 834.533447,605.226685 
	C836.641174,602.000793 839.050354,600.520996 843.093201,600.584473 
	C857.580383,600.812317 872.074036,600.671021 886.564758,600.593445 
	C888.836853,600.581238 890.681152,600.765869 892.134399,602.945801 
	C900.078064,614.861694 908.155823,626.688232 916.166382,638.559692 
	C916.521179,639.085571 916.670105,639.750366 916.992432,640.540466 
	C914.613525,642.555481 911.868835,641.703796 908.864014,641.922852 
z"/>
</svg>