<svg version="1.1" id="Layer_1" xmlns="http://www.w3.org/2000/svg" xmlns:xlink="http://www.w3.org/1999/xlink" x="0px" y="0px"
	 width="100%" viewBox="0 0 1774 887" enable-background="new 0 0 1774 887" xml:space="preserve">
<path fill="#030E23" opacity="1.000000" stroke="none" 
	d="
M1028.000000,888.000000 
	C685.333313,888.000000 343.166656,888.000000 1.000000,888.000000 
	C1.000000,592.333313 1.000000,296.666656 1.000000,1.000000 
	C592.333313,1.000000 1183.666626,1.000000 1775.000000,1.000000 
	C1775.000000,296.666656 1775.000000,592.333313 1775.000000,888.000000 
	C1526.166626,888.000000 1277.333374,888.000000 1028.000000,888.000000 
M1084.125366,531.996277 
	C1081.187866,532.190186 1078.248657,532.572876 1075.313354,532.543579 
	C1065.445068,532.445129 1055.578369,532.120972 1045.710815,532.109741 
	C1044.460938,532.108276 1043.209473,533.452637 1041.268799,534.044800 
	C1036.174194,526.450562 1030.940063,518.945679 1026.008667,511.246918 
	C1003.203613,475.643738 980.477783,439.989777 957.732727,404.348206 
	C920.657837,346.251740 883.595886,288.147034 846.510925,230.056976 
	C842.547180,223.848175 838.467834,217.713165 834.105896,211.028702 
	C818.527100,235.479065 803.418213,259.191650 788.309570,282.904419 
	C757.986389,330.496063 727.783508,378.164978 697.284973,425.644012 
	C683.884888,446.504852 670.996155,467.833099 655.937317,487.462463 
	C616.735474,538.562866 548.975037,558.354492 487.726654,537.956604 
	C417.147339,514.451111 373.488129,444.424255 385.040283,372.044708 
	C400.410614,275.742401 495.953979,230.080963 573.055786,252.615540 
	C594.512756,258.886780 613.307190,269.923431 630.085449,283.667450 
	C644.546387,269.694611 658.904907,255.820801 673.192444,242.015533 
	C672.692322,241.281113 672.564636,240.958191 672.329651,240.767715 
	C623.707581,201.359268 568.432983,182.900024 506.138031,192.382843 
	C429.108887,204.108566 372.433777,244.800980 341.286102,317.386658 
	C305.300903,401.245636 332.529480,489.746307 390.436707,543.283630 
	C445.337433,594.041443 510.861389,609.745789 583.333313,595.434509 
	C636.737610,584.888672 679.160217,556.722961 708.264526,509.873016 
	C715.030884,498.980957 721.948792,488.182220 728.866943,477.385376 
	C757.695740,432.393097 786.541992,387.411896 815.404419,342.441162 
	C821.477112,332.979218 827.645264,323.578583 834.024841,313.756561 
	C835.276001,315.535095 836.165344,316.703461 836.955017,317.935699 
	C867.131165,365.023285 897.358154,412.078430 927.448914,459.220581 
	C955.041565,502.449066 982.485901,545.772278 1010.231934,589.817322 
	C1012.077271,590.209045 1013.922180,590.940491 1015.768005,590.942871 
	C1064.052368,591.006348 1112.336670,590.994507 1160.621094,590.995056 
	C1215.898438,590.995667 1271.175659,591.013672 1326.452881,590.917603 
	C1328.296753,590.914429 1330.138550,589.755798 1332.325317,588.539795 
	C1344.394775,570.305298 1356.464233,552.070801 1369.100952,532.979309 
	C1366.395996,532.979309 1364.939697,532.979248 1363.483398,532.979309 
	C1296.504761,532.979614 1229.526001,532.980774 1162.547363,532.975525 
	C1160.716553,532.975342 1158.858765,533.093628 1157.059570,532.835876 
	C1148.723389,531.642029 1144.772583,526.217163 1144.768555,515.774719 
	C1144.732178,422.471191 1144.706055,329.167664 1144.792358,235.864258 
	C1144.795654,232.318115 1143.749512,230.215363 1140.837036,228.144363 
	C1123.474609,215.798233 1106.279419,203.216965 1088.938477,190.109848 
	C1086.902100,186.601364 1086.057983,189.140152 1085.019043,191.822220 
	C1085.015991,305.212616 1085.012817,418.603027 1084.125366,531.996277 
M776.513672,532.938782 
	C773.847656,532.948242 771.152161,533.212463 768.522339,532.908691 
	C764.374207,532.429565 761.929871,533.988647 759.737244,537.611938 
	C755.089783,545.292053 749.827820,552.598938 744.858521,560.085938 
	C738.639038,569.456848 732.460449,578.854980 726.014282,588.619995 
	C798.940796,588.619995 871.197266,588.619995 944.054504,588.619995 
	C942.462036,586.076599 941.272583,584.094360 940.004089,582.163940 
	C930.040405,567.001282 919.973511,551.905273 910.164978,536.643005 
	C908.304810,533.748474 906.323059,532.835754 902.973572,532.845459 
	C861.152161,532.967041 819.330322,532.932861 776.513672,532.938782 
M1359.876099,567.350891 
	C1355.254272,574.344543 1350.632324,581.338257 1345.853760,588.569092 
	C1398.990479,588.569092 1451.312622,588.569092 1504.510498,588.569092 
	C1491.192017,570.163757 1478.472778,552.456055 1465.509521,534.928833 
	C1464.514160,533.582886 1461.801147,532.938477 1459.882446,532.930603 
	C1435.554932,532.830505 1411.226196,532.977478 1386.898804,532.856018 
	C1383.574707,532.839417 1381.749512,534.151917 1380.076294,536.727661 
	C1373.545776,546.781067 1366.882812,556.748596 1359.876099,567.350891 
M484.068054,704.658081 
	C498.339783,698.363953 504.273773,685.938110 500.017761,671.259399 
	C496.337280,658.565796 483.225311,650.949341 468.834991,653.146179 
	C455.294037,655.213196 445.609924,667.134644 446.125336,681.102112 
	C446.803558,699.483215 463.931732,710.444092 484.068054,704.658081 
M1529.080566,675.429932 
	C1535.083496,665.675293 1530.885620,654.985474 1519.730957,653.646729 
	C1511.265015,652.630737 1502.579468,653.445251 1494.161743,653.445251 
	C1494.161743,670.742249 1494.161743,687.794739 1494.161743,705.104248 
	C1503.188232,705.104248 1511.826416,705.311096 1520.449463,705.039673 
	C1527.511475,704.817383 1532.712891,700.822021 1534.511841,695.002625 
	C1536.509277,688.540955 1534.608765,683.551208 1528.471680,678.588257 
	C1528.077515,678.269531 1528.545654,676.884644 1529.080566,675.429932 
M609.015808,654.866089 
	C609.015808,671.634521 609.015808,688.403015 609.015808,705.105652 
	C618.175598,705.105652 626.867493,705.896240 635.352722,704.909912 
	C646.503357,703.613647 654.395020,694.218689 655.278137,683.123840 
	C656.359802,669.533447 650.617371,657.866089 639.177734,655.385193 
	C629.535767,653.294250 619.220581,654.307434 609.015808,654.866089 
M809.708191,705.084595 
	C810.070984,703.422974 810.684448,701.770691 810.746887,700.097900 
	C810.899292,696.015686 810.796570,691.923889 810.796570,687.906372 
	C820.473389,687.281006 820.460083,687.288574 824.730286,694.821533 
	C826.289368,697.571960 827.719543,700.435730 829.619568,702.935364 
	C830.547302,704.155884 832.349792,705.175354 833.876404,705.377014 
	C836.773010,705.759583 839.756042,705.487732 843.596619,705.487732 
	C839.226013,698.399414 835.363892,692.135681 831.472534,685.824585 
	C832.441711,685.166931 832.994629,684.807739 833.530823,684.425293 
	C839.994812,679.814697 842.448669,673.408020 840.725281,665.653564 
	C839.179321,658.697449 834.285889,654.011475 826.161194,653.431458 
	C817.594666,652.819946 808.950623,653.294434 800.159851,653.294434 
	C800.159851,670.639221 800.159851,687.701843 800.159851,705.143738 
	C803.235413,705.143738 806.041260,705.143738 809.708191,705.084595 
M957.983398,659.619263 
	C957.983398,657.532654 957.983398,655.446045 957.983398,653.387207 
	C953.929688,653.387207 950.672363,653.387207 947.197998,653.387207 
	C947.197998,670.692993 947.197998,687.725525 947.197998,704.721252 
	C950.911865,704.721252 954.283752,704.721252 958.188965,704.721252 
	C958.188965,697.438293 958.188965,690.550598 958.188965,683.776245 
	C965.802673,683.776245 972.865173,683.776245 980.455200,683.776245 
	C980.455200,691.013000 980.455200,697.918457 980.455200,704.921448 
	C984.288574,704.921448 987.581909,704.921448 991.172241,704.921448 
	C991.172241,687.657288 991.172241,670.581421 991.172241,653.351624 
	C987.570984,653.351624 984.178711,653.351624 980.165344,653.351624 
	C980.165344,660.338318 980.165344,667.059692 980.165344,673.764954 
	C972.465271,673.764954 965.395508,673.764954 957.981323,673.764954 
	C957.981323,669.180237 957.981323,664.885193 957.983398,659.619263 
M542.982483,679.387512 
	C542.982483,670.779480 542.982483,662.171387 542.982483,653.445679 
	C539.023438,653.445679 535.633301,653.445679 531.901306,653.445679 
	C531.901306,664.560242 531.799500,675.361084 531.927856,686.159241 
	C532.077515,698.747375 539.957092,706.231628 552.977966,706.406067 
	C566.704041,706.589905 575.271362,699.268860 575.643066,686.621094 
	C575.921875,677.135010 575.745483,667.635254 575.743652,658.141541 
	C575.743347,656.542664 575.600647,654.943787 575.524658,653.362793 
	C571.655945,653.362793 568.358215,653.362793 564.853760,653.362793 
	C564.718079,654.480835 564.507751,655.441406 564.499329,656.403687 
	C564.413208,666.229187 564.569397,676.062256 564.226013,685.878113 
	C563.985352,692.757751 559.843445,696.429504 553.394592,696.327087 
	C547.207458,696.228821 543.545654,692.530823 543.092957,685.842590 
	C542.969421,684.017273 543.017395,682.180359 542.982483,679.387512 
M747.525146,695.008179 
	C754.014099,694.465088 760.352905,694.041565 761.203186,703.173950 
	C761.285461,704.057861 763.147156,705.324768 764.291138,705.453674 
	C767.193848,705.780823 770.158203,705.562317 773.827393,705.562317 
	C766.897278,687.635681 760.235413,670.402893 753.641846,653.346863 
	C742.804443,652.853821 742.804871,652.854004 739.057739,662.137695 
	C738.809143,662.753601 738.534973,663.359314 738.288452,663.976013 
	C732.821838,677.650269 727.357422,691.325500 721.668152,705.561951 
	C723.751282,705.561951 725.225342,705.368713 726.631348,705.596375 
	C731.936890,706.455261 735.120544,704.491272 735.974731,699.037964 
	C736.471924,695.864258 738.369385,694.634766 741.569275,695.042297 
	C743.204285,695.250610 744.893188,695.036316 747.525146,695.008179 
M1143.551514,662.911987 
	C1149.827271,662.911987 1156.103149,662.911987 1162.571045,662.911987 
	C1162.571045,659.383606 1162.571045,656.488342 1162.571045,653.344971 
	C1151.224365,653.344971 1140.162231,653.344971 1128.934204,653.344971 
	C1128.934204,670.630127 1128.934204,687.702332 1128.934204,704.948181 
	C1140.274780,704.948181 1151.348022,704.948181 1162.671631,704.948181 
	C1162.671631,701.943970 1162.671631,699.200378 1162.671631,695.998840 
	C1155.025269,695.998840 1147.590820,695.998840 1139.907227,695.998840 
	C1139.907227,691.648621 1139.907227,687.759033 1139.907227,683.314209 
	C1146.312378,683.314209 1152.387573,683.314209 1158.355347,683.314209 
	C1158.355347,679.992676 1158.355347,677.234802 1158.355347,673.993286 
	C1151.976929,673.993286 1145.899414,673.993286 1139.557739,673.993286 
	C1139.557739,670.848328 1139.283325,668.154053 1139.694946,665.568970 
	C1139.855957,664.558044 1141.557861,663.792542 1143.551514,662.911987 
M1457.472778,675.835449 
	C1455.009277,669.295898 1452.361084,662.817444 1450.167114,656.188721 
	C1449.201294,653.270508 1447.475586,652.597534 1444.954956,653.096924 
	C1442.076904,653.667053 1438.402466,651.187988 1436.647339,656.109741 
	C1433.076660,666.122498 1428.956543,675.939392 1425.057129,685.834717 
	C1422.593750,692.086121 1420.119995,698.333496 1417.515137,704.926392 
	C1421.720947,704.926392 1425.187622,704.926392 1429.323120,704.926392 
	C1429.417725,693.368958 1437.537109,694.420532 1445.338989,694.910095 
	C1446.333740,694.972473 1447.363037,695.068848 1448.329590,694.892822 
	C1452.595825,694.116150 1454.591553,696.055664 1455.710571,700.074829 
	C1456.234863,701.958313 1457.875854,704.405701 1459.522583,704.903137 
	C1462.191772,705.709534 1465.282715,705.120361 1468.944702,705.120361 
	C1465.014038,695.063049 1461.394165,685.800903 1457.472778,675.835449 
M327.641693,695.492981 
	C320.753235,692.527771 317.414429,687.047546 317.381714,679.795471 
	C317.352234,673.259888 319.815582,667.543823 326.017181,664.592346 
	C333.660553,660.954712 340.545959,662.954468 346.287994,668.619324 
	C348.867737,666.245483 351.300720,664.006775 353.712006,661.788025 
	C344.320007,649.893982 323.176422,649.798889 312.787811,661.496826 
	C303.038239,672.475159 304.213806,691.144043 315.570618,700.489685 
	C326.600708,709.566467 345.383301,708.015869 352.718353,698.026306 
	C350.450500,695.535095 348.268829,693.138611 345.984985,690.629883 
	C341.175629,695.675354 335.409760,697.851440 327.641693,695.492981 
M1225.705566,665.585693 
	C1226.878418,666.479858 1228.051270,667.373962 1229.419556,668.417175 
	C1231.723022,666.031555 1233.905762,663.770996 1236.086182,661.512939 
	C1226.688110,650.185669 1207.920166,649.490540 1196.863281,660.028625 
	C1186.072388,670.313232 1186.403320,689.553223 1197.540161,699.377136 
	C1208.595215,709.128906 1227.517212,707.931213 1235.842773,697.039978 
	C1233.676880,694.782288 1231.518921,692.532837 1229.843872,690.786804 
	C1225.968384,692.562378 1222.426758,694.924805 1218.549805,695.797852 
	C1211.761230,697.326660 1205.392700,693.809692 1202.296021,687.821106 
	C1198.800903,681.061951 1200.079712,672.112854 1205.274658,666.975220 
	C1210.394531,661.911926 1217.396484,661.264832 1225.705566,665.585693 
M887.949463,692.730225 
	C887.169678,691.867981 886.303223,691.068726 885.623779,690.133606 
	C880.172546,682.631348 880.956360,672.803284 887.471924,666.491150 
	C893.076233,661.061829 901.848816,661.350464 909.247559,667.202209 
	C909.703003,667.562439 910.187866,667.885437 910.215820,667.905640 
	C912.819458,665.387939 915.047607,663.233398 917.272400,661.082092 
	C906.383240,649.606445 888.083435,649.704834 877.458923,661.361023 
	C867.438904,672.354004 869.125427,691.439148 880.924988,700.584045 
	C891.850403,709.051453 910.451355,707.092041 916.722168,697.223511 
	C914.533691,694.862000 912.424683,692.586182 910.327393,690.322998 
	C901.756470,697.286682 896.789795,697.930115 887.949463,692.730225 
M1096.360352,662.915955 
	C1098.117798,662.915955 1099.875244,662.915955 1101.642090,662.915955 
	C1101.642090,659.279358 1101.642090,656.370850 1101.642090,653.471863 
	C1088.629883,653.471863 1075.935059,653.471863 1063.371094,653.471863 
	C1063.371094,656.796753 1063.371094,659.718811 1063.371094,663.236816 
	C1068.076172,663.236816 1072.451782,663.236816 1077.085938,663.236816 
	C1077.085938,677.464966 1077.085938,691.083008 1077.085938,704.901611 
	C1080.635132,704.901611 1083.899170,704.901611 1087.620361,704.901611 
	C1087.620361,690.946655 1087.620361,677.214966 1087.620361,662.921875 
	C1090.516357,662.921875 1092.963623,662.921875 1096.360352,662.915955 
M1276.583496,705.102905 
	C1278.861816,705.102905 1281.140259,705.102905 1283.958740,705.102905 
	C1283.958740,690.779236 1283.958740,677.054749 1283.958740,662.839966 
	C1288.908569,662.839966 1293.319214,662.839966 1297.786621,662.839966 
	C1297.786621,659.416748 1297.786621,656.500732 1297.786621,653.417969 
	C1284.790771,653.417969 1272.071899,653.417969 1259.371704,653.417969 
	C1259.371704,656.671997 1259.371704,659.596863 1259.371704,663.070129 
	C1264.034302,663.070129 1268.427246,663.070129 1273.066406,663.070129 
	C1273.066406,676.105347 1273.042725,688.580627 1273.092896,701.055481 
	C1273.100098,702.824890 1272.151245,705.428162 1276.583496,705.102905 
M385.898102,685.499878 
	C385.898102,692.108093 385.898102,698.716309 385.898102,705.479614 
	C397.347748,705.479614 408.242279,705.479614 419.393219,705.479614 
	C419.393219,702.289978 419.393219,699.388550 419.393219,696.031982 
	C411.869965,696.031982 404.629486,696.031982 396.759094,696.031982 
	C396.759094,681.556335 396.759094,667.523438 396.759094,653.432129 
	C392.850616,653.432129 389.585968,653.432129 385.903564,653.432129 
	C385.903564,663.932556 385.903564,674.216248 385.898102,685.499878 
M1362.941772,702.340759 
	C1363.560181,703.263611 1364.165649,704.980347 1364.798950,704.990723 
	C1375.052856,705.158325 1385.310425,705.109253 1395.716797,705.109253 
	C1395.716797,701.608032 1395.716797,698.824524 1395.716797,695.548096 
	C1388.486694,695.548096 1381.413818,695.548096 1373.776611,695.548096 
	C1373.776611,681.173706 1373.776611,667.281799 1373.776611,653.330994 
	C1369.925659,653.330994 1366.656494,653.330994 1362.941650,653.330994 
	C1362.941650,669.480652 1362.941650,685.422241 1362.941772,702.340759 
M1024.460449,655.029053 
	C1024.460449,671.591675 1024.460449,688.154297 1024.460449,704.934082 
	C1028.304688,704.934082 1031.553833,704.934082 1035.297485,704.934082 
	C1035.297485,696.171326 1035.297485,687.569214 1035.297485,678.967163 
	C1035.297485,670.402222 1035.297485,661.837280 1035.297485,652.564880 
	C1031.216919,653.163513 1027.905396,653.649292 1024.460449,655.029053 
z"/>
<path fill="#F3F3F3" opacity="1.000000" stroke="none" 
	d="
M1089.028076,190.714661 
	C1106.279419,203.216965 1123.474609,215.798233 1140.837036,228.144363 
	C1143.749512,230.215363 1144.795654,232.318115 1144.792358,235.864258 
	C1144.706055,329.167664 1144.732178,422.471191 1144.768555,515.774719 
	C1144.772583,526.217163 1148.723389,531.642029 1157.059570,532.835876 
	C1158.858765,533.093628 1160.716553,532.975342 1162.547363,532.975525 
	C1229.526001,532.980774 1296.504761,532.979614 1363.483398,532.979309 
	C1364.939697,532.979248 1366.395996,532.979309 1369.100952,532.979309 
	C1356.464233,552.070801 1344.394775,570.305298 1331.686768,588.815002 
	C1224.030762,589.078064 1117.013184,589.065918 1009.995667,589.053711 
	C982.485901,545.772278 955.041565,502.449066 927.448914,459.220581 
	C897.358154,412.078430 867.131165,365.023285 836.955017,317.935699 
	C836.165344,316.703461 835.276001,315.535095 834.024841,313.756561 
	C827.645264,323.578583 821.477112,332.979218 815.404419,342.441162 
	C786.541992,387.411896 757.695740,432.393097 728.866943,477.385376 
	C721.948792,488.182220 715.030884,498.980957 708.264526,509.873016 
	C679.160217,556.722961 636.737610,584.888672 583.333313,595.434509 
	C510.861389,609.745789 445.337433,594.041443 390.436707,543.283630 
	C332.529480,489.746307 305.300903,401.245636 341.286102,317.386658 
	C372.433777,244.800980 429.108887,204.108566 506.138031,192.382843 
	C568.432983,182.900024 623.707581,201.359268 672.329651,240.767715 
	C672.564636,240.958191 672.692322,241.281113 673.192444,242.015533 
	C658.904907,255.820801 644.546387,269.694611 630.085449,283.667450 
	C613.307190,269.923431 594.512756,258.886780 573.055786,252.615540 
	C495.953979,230.080963 400.410614,275.742401 385.040283,372.044708 
	C373.488129,444.424255 417.147339,514.451111 487.726654,537.956604 
	C548.975037,558.354492 616.735474,538.562866 655.937317,487.462463 
	C670.996155,467.833099 683.884888,446.504852 697.284973,425.644012 
	C727.783508,378.164978 757.986389,330.496063 788.309570,282.904419 
	C803.418213,259.191650 818.527100,235.479065 834.105896,211.028702 
	C838.467834,217.713165 842.547180,223.848175 846.510925,230.056976 
	C883.595886,288.147034 920.657837,346.251740 957.732727,404.348206 
	C980.477783,439.989777 1003.203613,475.643738 1026.008667,511.246918 
	C1030.940063,518.945679 1036.174194,526.450562 1041.976074,534.304810 
	C1056.779663,534.444397 1070.875977,534.324036 1085.246826,534.284302 
	C1085.683716,534.264771 1085.846069,534.164612 1086.306274,534.044556 
	C1086.621094,533.665161 1086.637939,533.305603 1086.749023,532.493408 
	C1086.869751,530.542969 1086.919556,529.045105 1086.919556,527.547302 
	C1086.915771,446.807495 1086.924805,366.067719 1086.891357,285.327911 
	C1086.878418,253.870468 1086.768311,222.413071 1087.013794,190.647797 
	C1087.892700,190.464859 1088.460449,190.589767 1089.028076,190.714661 
z"/>
<path fill="#F3F3F3" opacity="1.000000" stroke="none" 
	d="
M777.011108,532.938721 
	C819.330322,532.932861 861.152161,532.967041 902.973572,532.845459 
	C906.323059,532.835754 908.304810,533.748474 910.164978,536.643005 
	C919.973511,551.905273 930.040405,567.001282 940.004089,582.163940 
	C941.272583,584.094360 942.462036,586.076599 944.054504,588.619995 
	C871.197266,588.619995 798.940796,588.619995 726.014282,588.619995 
	C732.460449,578.854980 738.639038,569.456848 744.858521,560.085938 
	C749.827820,552.598938 755.089783,545.292053 759.737244,537.611938 
	C761.929871,533.988647 764.374207,532.429565 768.522339,532.908691 
	C771.152161,533.212463 773.847656,532.948242 777.011108,532.938721 
z"/>
<path fill="#F07512" opacity="1.000000" stroke="none" 
	d="
M1360.072632,567.049438 
	C1366.882812,556.748596 1373.545776,546.781067 1380.076294,536.727661 
	C1381.749512,534.151917 1383.574707,532.839417 1386.898804,532.856018 
	C1411.226196,532.977478 1435.554932,532.830505 1459.882446,532.930603 
	C1461.801147,532.938477 1464.514160,533.582886 1465.509521,534.928833 
	C1478.472778,552.456055 1491.192017,570.163757 1504.510498,588.569092 
	C1451.312622,588.569092 1398.990479,588.569092 1345.853760,588.569092 
	C1350.632324,581.338257 1355.254272,574.344543 1360.072632,567.049438 
z"/>
<path fill="#EAEBEC" opacity="1.000000" stroke="none" 
	d="
M483.698547,704.784058 
	C463.931732,710.444092 446.803558,699.483215 446.125336,681.102112 
	C445.609924,667.134644 455.294037,655.213196 468.834991,653.146179 
	C483.225311,650.949341 496.337280,658.565796 500.017761,671.259399 
	C504.273773,685.938110 498.339783,698.363953 483.698547,704.784058 
M485.587280,667.947998 
	C479.426636,662.358215 471.347931,661.336304 464.980988,665.341492 
	C458.538757,669.393982 455.752747,677.281189 458.016876,685.057251 
	C460.105164,692.229553 466.081696,696.649109 473.738403,696.466370 
	C480.111603,696.314331 484.938782,693.307068 487.828156,687.671326 
	C491.244781,681.007141 490.819702,674.514954 485.587280,667.947998 
z"/>
<path fill="#EBECED" opacity="1.000000" stroke="none" 
	d="
M1528.846680,675.712830 
	C1528.545654,676.884644 1528.077515,678.269531 1528.471680,678.588257 
	C1534.608765,683.551208 1536.509277,688.540955 1534.511841,695.002625 
	C1532.712891,700.822021 1527.511475,704.817383 1520.449463,705.039673 
	C1511.826416,705.311096 1503.188232,705.104248 1494.161743,705.104248 
	C1494.161743,687.794739 1494.161743,670.742249 1494.161743,653.445251 
	C1502.579468,653.445251 1511.265015,652.630737 1519.730957,653.646729 
	C1530.885620,654.985474 1535.083496,665.675293 1528.846680,675.712830 
M1517.014404,682.939209 
	C1512.797119,682.939209 1508.579712,682.939209 1504.473145,682.939209 
	C1504.473145,687.772705 1504.473145,691.803162 1504.473145,695.983704 
	C1508.675659,695.983704 1512.479858,695.994019 1516.283936,695.980713 
	C1520.012085,695.967712 1523.427124,695.241394 1524.109253,690.828674 
	C1524.831299,686.155823 1522.405884,683.682251 1517.014404,682.939209 
M1517.768677,663.113831 
	C1513.348511,663.113831 1508.928345,663.113831 1504.316895,663.113831 
	C1504.316895,666.775818 1504.316895,670.318787 1504.316895,674.203125 
	C1507.882568,674.203125 1511.239746,674.601440 1514.440063,674.064758 
	C1516.619751,673.699219 1519.912598,672.379395 1520.318359,670.851746 
	C1520.891235,668.693665 1519.257568,665.949646 1517.768677,663.113831 
z"/>
<path fill="#E8E9EB" opacity="1.000000" stroke="none" 
	d="
M609.109619,654.406311 
	C619.220581,654.307434 629.535767,653.294250 639.177734,655.385193 
	C650.617371,657.866089 656.359802,669.533447 655.278137,683.123840 
	C654.395020,694.218689 646.503357,703.613647 635.352722,704.909912 
	C626.867493,705.896240 618.175598,705.105652 609.015808,705.105652 
	C609.015808,688.403015 609.015808,671.634521 609.109619,654.406311 
M619.868042,670.587280 
	C619.868042,678.991089 619.868042,687.394836 619.868042,695.862366 
	C628.669128,695.959534 637.320007,697.701294 642.181091,688.556885 
	C645.570679,682.180664 645.456299,675.721130 641.403320,669.661194 
	C636.124573,661.768494 628.124939,662.979309 619.872498,663.470520 
	C619.872498,665.694336 619.872498,667.653748 619.868042,670.587280 
z"/>
<path fill="#E8E9EB" opacity="1.000000" stroke="none" 
	d="
M809.277649,705.114136 
	C806.041260,705.143738 803.235413,705.143738 800.159851,705.143738 
	C800.159851,687.701843 800.159851,670.639221 800.159851,653.294434 
	C808.950623,653.294434 817.594666,652.819946 826.161194,653.431458 
	C834.285889,654.011475 839.179321,658.697449 840.725281,665.653564 
	C842.448669,673.408020 839.994812,679.814697 833.530823,684.425293 
	C832.994629,684.807739 832.441711,685.166931 831.472534,685.824585 
	C835.363892,692.135681 839.226013,698.399414 843.596619,705.487732 
	C839.756042,705.487732 836.773010,705.759583 833.876404,705.377014 
	C832.349792,705.175354 830.547302,704.155884 829.619568,702.935364 
	C827.719543,700.435730 826.289368,697.571960 824.730286,694.821533 
	C820.460083,687.288574 820.473389,687.281006 810.796570,687.906372 
	C810.796570,691.923889 810.899292,696.015686 810.746887,700.097900 
	C810.684448,701.770691 810.070984,703.422974 809.277649,705.114136 
M812.659241,678.110596 
	C816.143616,678.096069 819.645142,678.293579 823.108215,678.014465 
	C827.656433,677.647888 830.276001,674.432739 830.109863,669.950012 
	C829.950012,665.635498 827.405212,663.190979 822.678406,663.049988 
	C818.903625,662.937439 815.122803,663.027344 810.464966,663.027344 
	C810.907471,668.349548 811.306946,673.155151 812.659241,678.110596 
z"/>
<path fill="#E8E9EA" opacity="1.000000" stroke="none" 
	d="
M957.982361,660.104675 
	C957.981323,664.885193 957.981323,669.180237 957.981323,673.764954 
	C965.395508,673.764954 972.465271,673.764954 980.165344,673.764954 
	C980.165344,667.059692 980.165344,660.338318 980.165344,653.351624 
	C984.178711,653.351624 987.570984,653.351624 991.172241,653.351624 
	C991.172241,670.581421 991.172241,687.657288 991.172241,704.921448 
	C987.581909,704.921448 984.288574,704.921448 980.455200,704.921448 
	C980.455200,697.918457 980.455200,691.013000 980.455200,683.776245 
	C972.865173,683.776245 965.802673,683.776245 958.188965,683.776245 
	C958.188965,690.550598 958.188965,697.438293 958.188965,704.721252 
	C954.283752,704.721252 950.911865,704.721252 947.197998,704.721252 
	C947.197998,687.725525 947.197998,670.692993 947.197998,653.387207 
	C950.672363,653.387207 953.929688,653.387207 957.983398,653.387207 
	C957.983398,655.446045 957.983398,657.532654 957.982361,660.104675 
z"/>
<path fill="#E6E7E9" opacity="1.000000" stroke="none" 
	d="
M542.984619,679.868164 
	C543.017395,682.180359 542.969421,684.017273 543.092957,685.842590 
	C543.545654,692.530823 547.207458,696.228821 553.394592,696.327087 
	C559.843445,696.429504 563.985352,692.757751 564.226013,685.878113 
	C564.569397,676.062256 564.413208,666.229187 564.499329,656.403687 
	C564.507751,655.441406 564.718079,654.480835 564.853760,653.362793 
	C568.358215,653.362793 571.655945,653.362793 575.524658,653.362793 
	C575.600647,654.943787 575.743347,656.542664 575.743652,658.141541 
	C575.745483,667.635254 575.921875,677.135010 575.643066,686.621094 
	C575.271362,699.268860 566.704041,706.589905 552.977966,706.406067 
	C539.957092,706.231628 532.077515,698.747375 531.927856,686.159241 
	C531.799500,675.361084 531.901306,664.560242 531.901306,653.445679 
	C535.633301,653.445679 539.023438,653.445679 542.982483,653.445679 
	C542.982483,662.171387 542.982483,670.779480 542.984619,679.868164 
z"/>
<path fill="#EAEAEC" opacity="1.000000" stroke="none" 
	d="
M747.041443,695.010620 
	C744.893188,695.036316 743.204285,695.250610 741.569275,695.042297 
	C738.369385,694.634766 736.471924,695.864258 735.974731,699.037964 
	C735.120544,704.491272 731.936890,706.455261 726.631348,705.596375 
	C725.225342,705.368713 723.751282,705.561951 721.668152,705.561951 
	C727.357422,691.325500 732.821838,677.650269 738.288452,663.976013 
	C738.534973,663.359314 738.809143,662.753601 739.057739,662.137695 
	C742.804871,652.854004 742.804443,652.853821 753.641846,653.346863 
	C760.235413,670.402893 766.897278,687.635681 773.827393,705.562317 
	C770.158203,705.562317 767.193848,705.780823 764.291138,705.453674 
	C763.147156,705.324768 761.285461,704.057861 761.203186,703.173950 
	C760.352905,694.041565 754.014099,694.465088 747.041443,695.010620 
M747.605896,685.825989 
	C749.802856,685.825989 751.999878,685.825989 754.794067,685.825989 
	C752.327087,679.113098 750.262146,673.494385 747.794739,666.780334 
	C745.285156,673.787903 743.221191,679.551025 740.973450,685.827454 
	C743.430481,685.827454 745.072266,685.827454 747.605896,685.825989 
z"/>
<path fill="#E9EAEB" opacity="1.000000" stroke="none" 
	d="
M1143.054688,662.913574 
	C1141.557861,663.792542 1139.855957,664.558044 1139.694946,665.568970 
	C1139.283325,668.154053 1139.557739,670.848328 1139.557739,673.993286 
	C1145.899414,673.993286 1151.976929,673.993286 1158.355347,673.993286 
	C1158.355347,677.234802 1158.355347,679.992676 1158.355347,683.314209 
	C1152.387573,683.314209 1146.312378,683.314209 1139.907227,683.314209 
	C1139.907227,687.759033 1139.907227,691.648621 1139.907227,695.998840 
	C1147.590820,695.998840 1155.025269,695.998840 1162.671631,695.998840 
	C1162.671631,699.200378 1162.671631,701.943970 1162.671631,704.948181 
	C1151.348022,704.948181 1140.274780,704.948181 1128.934204,704.948181 
	C1128.934204,687.702332 1128.934204,670.630127 1128.934204,653.344971 
	C1140.162231,653.344971 1151.224365,653.344971 1162.571045,653.344971 
	C1162.571045,656.488342 1162.571045,659.383606 1162.571045,662.911987 
	C1156.103149,662.911987 1149.827271,662.911987 1143.054688,662.913574 
z"/>
<path fill="#E9EAEB" opacity="1.000000" stroke="none" 
	d="
M1457.623535,676.187134 
	C1461.394165,685.800903 1465.014038,695.063049 1468.944702,705.120361 
	C1465.282715,705.120361 1462.191772,705.709534 1459.522583,704.903137 
	C1457.875854,704.405701 1456.234863,701.958313 1455.710571,700.074829 
	C1454.591553,696.055664 1452.595825,694.116150 1448.329590,694.892822 
	C1447.363037,695.068848 1446.333740,694.972473 1445.338989,694.910095 
	C1437.537109,694.420532 1429.417725,693.368958 1429.323120,704.926392 
	C1425.187622,704.926392 1421.720947,704.926392 1417.515137,704.926392 
	C1420.119995,698.333496 1422.593750,692.086121 1425.057129,685.834717 
	C1428.956543,675.939392 1433.076660,666.122498 1436.647339,656.109741 
	C1438.402466,651.187988 1442.076904,653.667053 1444.954956,653.096924 
	C1447.475586,652.597534 1449.201294,653.270508 1450.167114,656.188721 
	C1452.361084,662.817444 1455.009277,669.295898 1457.623535,676.187134 
M1445.381836,672.040466 
	C1444.792480,670.600586 1444.203125,669.160706 1443.215210,666.747131 
	C1440.704712,673.505493 1438.546509,679.315735 1436.291626,685.385864 
	C1441.231812,685.385864 1445.538086,685.385864 1450.204224,685.385864 
	C1448.574219,680.838257 1447.126221,676.798462 1445.381836,672.040466 
z"/>
<path fill="#E8E9EB" opacity="1.000000" stroke="none" 
	d="
M328.034058,695.635559 
	C335.409760,697.851440 341.175629,695.675354 345.984985,690.629883 
	C348.268829,693.138611 350.450500,695.535095 352.718353,698.026306 
	C345.383301,708.015869 326.600708,709.566467 315.570618,700.489685 
	C304.213806,691.144043 303.038239,672.475159 312.787811,661.496826 
	C323.176422,649.798889 344.320007,649.893982 353.712006,661.788025 
	C351.300720,664.006775 348.867737,666.245483 346.287994,668.619324 
	C340.545959,662.954468 333.660553,660.954712 326.017181,664.592346 
	C319.815582,667.543823 317.352234,673.259888 317.381714,679.795471 
	C317.414429,687.047546 320.753235,692.527771 328.034058,695.635559 
z"/>
<path fill="#E8E9EB" opacity="1.000000" stroke="none" 
	d="
M1225.389404,665.365601 
	C1217.396484,661.264832 1210.394531,661.911926 1205.274658,666.975220 
	C1200.079712,672.112854 1198.800903,681.061951 1202.296021,687.821106 
	C1205.392700,693.809692 1211.761230,697.326660 1218.549805,695.797852 
	C1222.426758,694.924805 1225.968384,692.562378 1229.843872,690.786804 
	C1231.518921,692.532837 1233.676880,694.782288 1235.842773,697.039978 
	C1227.517212,707.931213 1208.595215,709.128906 1197.540161,699.377136 
	C1186.403320,689.553223 1186.072388,670.313232 1196.863281,660.028625 
	C1207.920166,649.490540 1226.688110,650.185669 1236.086182,661.512939 
	C1233.905762,663.770996 1231.723022,666.031555 1229.419556,668.417175 
	C1228.051270,667.373962 1226.878418,666.479858 1225.389404,665.365601 
z"/>
<path fill="#EAEAEC" opacity="1.000000" stroke="none" 
	d="
M888.249695,692.963562 
	C896.789795,697.930115 901.756470,697.286682 910.327393,690.322998 
	C912.424683,692.586182 914.533691,694.862000 916.722168,697.223511 
	C910.451355,707.092041 891.850403,709.051453 880.924988,700.584045 
	C869.125427,691.439148 867.438904,672.354004 877.458923,661.361023 
	C888.083435,649.704834 906.383240,649.606445 917.272400,661.082092 
	C915.047607,663.233398 912.819458,665.387939 910.215820,667.905640 
	C910.187866,667.885437 909.703003,667.562439 909.247559,667.202209 
	C901.848816,661.350464 893.076233,661.061829 887.471924,666.491150 
	C880.956360,672.803284 880.172546,682.631348 885.623779,690.133606 
	C886.303223,691.068726 887.169678,691.867981 888.249695,692.963562 
z"/>
<path fill="#E5E7E8" opacity="1.000000" stroke="none" 
	d="
M1095.885620,662.918945 
	C1092.963623,662.921875 1090.516357,662.921875 1087.620361,662.921875 
	C1087.620361,677.214966 1087.620361,690.946655 1087.620361,704.901611 
	C1083.899170,704.901611 1080.635132,704.901611 1077.085938,704.901611 
	C1077.085938,691.083008 1077.085938,677.464966 1077.085938,663.236816 
	C1072.451782,663.236816 1068.076172,663.236816 1063.371094,663.236816 
	C1063.371094,659.718811 1063.371094,656.796753 1063.371094,653.471863 
	C1075.935059,653.471863 1088.629883,653.471863 1101.642090,653.471863 
	C1101.642090,656.370850 1101.642090,659.279358 1101.642090,662.915955 
	C1099.875244,662.915955 1098.117798,662.915955 1095.885620,662.918945 
z"/>
<path fill="#E7E8EA" opacity="1.000000" stroke="none" 
	d="
M1276.111938,705.104858 
	C1272.151245,705.428162 1273.100098,702.824890 1273.092896,701.055481 
	C1273.042725,688.580627 1273.066406,676.105347 1273.066406,663.070129 
	C1268.427246,663.070129 1264.034302,663.070129 1259.371704,663.070129 
	C1259.371704,659.596863 1259.371704,656.671997 1259.371704,653.417969 
	C1272.071899,653.417969 1284.790771,653.417969 1297.786621,653.417969 
	C1297.786621,656.500732 1297.786621,659.416748 1297.786621,662.839966 
	C1293.319214,662.839966 1288.908569,662.839966 1283.958740,662.839966 
	C1283.958740,677.054749 1283.958740,690.779236 1283.958740,705.102905 
	C1281.140259,705.102905 1278.861816,705.102905 1276.111938,705.104858 
z"/>
<path fill="#E8E8EA" opacity="1.000000" stroke="none" 
	d="
M385.900818,684.999878 
	C385.903564,674.216248 385.903564,663.932556 385.903564,653.432129 
	C389.585968,653.432129 392.850616,653.432129 396.759094,653.432129 
	C396.759094,667.523438 396.759094,681.556335 396.759094,696.031982 
	C404.629486,696.031982 411.869965,696.031982 419.393219,696.031982 
	C419.393219,699.388550 419.393219,702.289978 419.393219,705.479614 
	C408.242279,705.479614 397.347748,705.479614 385.898102,705.479614 
	C385.898102,698.716309 385.898102,692.108093 385.900818,684.999878 
z"/>
<path fill="#EAEAEC" opacity="1.000000" stroke="none" 
	d="
M1362.941650,701.852295 
	C1362.941650,685.422241 1362.941650,669.480652 1362.941650,653.330994 
	C1366.656494,653.330994 1369.925659,653.330994 1373.776611,653.330994 
	C1373.776611,667.281799 1373.776611,681.173706 1373.776611,695.548096 
	C1381.413818,695.548096 1388.486694,695.548096 1395.716797,695.548096 
	C1395.716797,698.824524 1395.716797,701.608032 1395.716797,705.109253 
	C1385.310425,705.109253 1375.052856,705.158325 1364.798950,704.990723 
	C1364.165649,704.980347 1363.560181,703.263611 1362.941650,701.852295 
z"/>
<path fill="#000010" opacity="1.000000" stroke="none" 
	d="
M1086.702515,190.955643 
	C1086.768311,222.413071 1086.878418,253.870468 1086.891357,285.327911 
	C1086.924805,366.067719 1086.915771,446.807495 1086.919556,527.547302 
	C1086.919556,529.045105 1086.869751,530.542969 1086.553467,532.472473 
	C1086.263672,532.904175 1085.876709,532.976746 1085.657593,532.983704 
	C1085.438477,532.990662 1085.000000,532.993164 1085.007568,532.743286 
	C1085.013306,532.326721 1085.011475,532.160095 1085.009766,531.993408 
	C1085.012817,418.603027 1085.015991,305.212616 1085.310791,191.386261 
	C1085.969116,190.952072 1086.335815,190.953857 1086.702515,190.955643 
z"/>
<path fill="#000213" opacity="1.000000" stroke="none" 
	d="
M1010.113770,589.435547 
	C1117.013184,589.065918 1224.030762,589.078064 1331.514893,589.113037 
	C1330.138550,589.755798 1328.296753,590.914429 1326.452881,590.917603 
	C1271.175659,591.013672 1215.898438,590.995667 1160.621094,590.995056 
	C1112.336670,590.994507 1064.052368,591.006348 1015.768005,590.942871 
	C1013.922180,590.940491 1012.077271,590.209045 1010.113770,589.435547 
z"/>
<path fill="#E7E7E9" opacity="1.000000" stroke="none" 
	d="
M1024.527100,654.582031 
	C1027.905396,653.649292 1031.216919,653.163513 1035.297485,652.564880 
	C1035.297485,661.837280 1035.297485,670.402222 1035.297485,678.967163 
	C1035.297485,687.569214 1035.297485,696.171326 1035.297485,704.934082 
	C1031.553833,704.934082 1028.304688,704.934082 1024.460449,704.934082 
	C1024.460449,688.154297 1024.460449,671.591675 1024.527100,654.582031 
z"/>
<path fill="#181E30" opacity="1.000000" stroke="none" 
	d="
M1084.567627,531.994873 
	C1085.011475,532.160095 1085.013306,532.326721 1085.001709,533.046021 
	C1084.982910,533.800293 1084.977539,534.001953 1084.972290,534.203674 
	C1070.875977,534.324036 1056.779663,534.444397 1042.321045,534.369141 
	C1043.209473,533.452637 1044.460938,532.108276 1045.710815,532.109741 
	C1055.578369,532.120972 1065.445068,532.445129 1075.313354,532.543579 
	C1078.248657,532.572876 1081.187866,532.190186 1084.567627,531.994873 
z"/>
<path fill="#181E30" opacity="1.000000" stroke="none" 
	d="
M1087.013794,190.647797 
	C1086.335815,190.953857 1085.969116,190.952072 1085.328979,190.912842 
	C1086.057983,189.140152 1086.902100,186.601364 1088.983276,190.412262 
	C1088.460449,190.589767 1087.892700,190.464859 1087.013794,190.647797 
z"/>
<path fill="#181E30" opacity="1.000000" stroke="none" 
	d="
M1085.876709,532.976746 
	C1085.876709,532.976746 1086.263672,532.904175 1086.459229,532.925049 
	C1086.637939,533.305603 1086.621094,533.665161 1086.279663,533.771912 
	C1085.928955,533.338257 1085.902832,533.157471 1085.876709,532.976746 
z"/>
<path fill="#030E23" opacity="1.000000" stroke="none" 
	d="
M1085.657593,532.983704 
	C1085.902832,533.157471 1085.928955,533.338257 1085.981812,533.791748 
	C1085.846069,534.164612 1085.683716,534.264771 1085.246826,534.284302 
	C1084.977539,534.001953 1084.982910,533.800293 1084.994141,533.295898 
	C1085.000000,532.993164 1085.438477,532.990662 1085.657593,532.983704 
z"/>
<path fill="#091124" opacity="1.000000" stroke="none" 
	d="
M485.823669,668.231201 
	C490.819702,674.514954 491.244781,681.007141 487.828156,687.671326 
	C484.938782,693.307068 480.111603,696.314331 473.738403,696.466370 
	C466.081696,696.649109 460.105164,692.229553 458.016876,685.057251 
	C455.752747,677.281189 458.538757,669.393982 464.980988,665.341492 
	C471.347931,661.336304 479.426636,662.358215 485.823669,668.231201 
z"/>
<path fill="#0F1729" opacity="1.000000" stroke="none" 
	d="
M1517.456177,682.975220 
	C1522.405884,683.682251 1524.831299,686.155823 1524.109253,690.828674 
	C1523.427124,695.241394 1520.012085,695.967712 1516.283936,695.980713 
	C1512.479858,695.994019 1508.675659,695.983704 1504.473145,695.983704 
	C1504.473145,691.803162 1504.473145,687.772705 1504.473145,682.939209 
	C1508.579712,682.939209 1512.797119,682.939209 1517.456177,682.975220 
z"/>
<path fill="#0B1325" opacity="1.000000" stroke="none" 
	d="
M1518.167847,663.284973 
	C1519.257568,665.949646 1520.891235,668.693665 1520.318359,670.851746 
	C1519.912598,672.379395 1516.619751,673.699219 1514.440063,674.064758 
	C1511.239746,674.601440 1507.882568,674.203125 1504.316895,674.203125 
	C1504.316895,670.318787 1504.316895,666.775818 1504.316895,663.113831 
	C1508.928345,663.113831 1513.348511,663.113831 1518.167847,663.284973 
z"/>
<path fill="#091124" opacity="1.000000" stroke="none" 
	d="
M619.870239,670.100220 
	C619.872498,667.653748 619.872498,665.694336 619.872498,663.470520 
	C628.124939,662.979309 636.124573,661.768494 641.403320,669.661194 
	C645.456299,675.721130 645.570679,682.180664 642.181091,688.556885 
	C637.320007,697.701294 628.669128,695.959534 619.868042,695.862366 
	C619.868042,687.394836 619.868042,678.991089 619.870239,670.100220 
z"/>
<path fill="#0B1325" opacity="1.000000" stroke="none" 
	d="
M812.182861,678.035645 
	C811.306946,673.155151 810.907471,668.349548 810.464966,663.027344 
	C815.122803,663.027344 818.903625,662.937439 822.678406,663.049988 
	C827.405212,663.190979 829.950012,665.635498 830.109863,669.950012 
	C830.276001,674.432739 827.656433,677.647888 823.108215,678.014465 
	C819.645142,678.293579 816.143616,678.096069 812.182861,678.035645 
z"/>
<path fill="#181E30" opacity="1.000000" stroke="none" 
	d="
M747.160034,685.826721 
	C745.072266,685.827454 743.430481,685.827454 740.973450,685.827454 
	C743.221191,679.551025 745.285156,673.787903 747.794739,666.780334 
	C750.262146,673.494385 752.327087,679.113098 754.794067,685.825989 
	C751.999878,685.825989 749.802856,685.825989 747.160034,685.826721 
z"/>
<path fill="#181E30" opacity="1.000000" stroke="none" 
	d="
M1445.530029,672.399597 
	C1447.126221,676.798462 1448.574219,680.838257 1450.204224,685.385864 
	C1445.538086,685.385864 1441.231812,685.385864 1436.291626,685.385864 
	C1438.546509,679.315735 1440.704712,673.505493 1443.215210,666.747131 
	C1444.203125,669.160706 1444.792480,670.600586 1445.530029,672.399597 
z"/>
</svg>