<svg version="1.1" id="Layer_1" xmlns="http://www.w3.org/2000/svg" xmlns:xlink="http://www.w3.org/1999/xlink" x="0px" y="0px"
	 width="100%" viewBox="0 0 1024 672" enable-background="new 0 0 1024 672" xml:space="preserve">
<path fill="#000000" opacity="1.000000" stroke="none" 
	d="
M176.361557,284.314392 
	C159.412262,347.641693 199.650116,411.139648 263.601898,421.339569 
	C303.230927,427.660156 336.995850,416.194641 363.249542,384.907104 
	C375.336609,370.502472 383.627533,353.690277 393.361694,337.813721 
	C426.453003,283.841064 459.199493,229.657028 492.093292,175.563217 
	C492.933350,174.181824 493.485809,172.468033 495.437012,172.024170 
	C497.533844,172.794647 498.080750,174.898132 499.046509,176.554718 
	C529.254211,228.369019 559.423523,280.205658 589.591675,332.042999 
	C605.346008,359.113281 621.085938,386.191925 636.837463,413.263824 
	C637.507507,414.415375 638.205322,415.552460 638.933411,416.668091 
	C639.823853,418.032379 641.029846,418.845825 642.726196,418.397034 
	C644.611938,417.898132 644.638611,416.309814 644.665405,414.786713 
	C644.703491,412.620667 644.709351,410.453796 644.709351,408.287292 
	C644.707703,329.123718 644.698547,249.960129 644.724670,170.796555 
	C644.725525,168.348404 644.226807,165.813583 645.363525,163.461090 
	C647.343933,162.694717 648.553955,164.061600 649.892334,164.952713 
	C660.986633,172.339142 672.036804,179.792496 683.183899,187.098236 
	C685.498474,188.615189 686.529236,190.229416 686.524902,193.144882 
	C686.420898,263.975067 686.428589,334.805420 686.416016,405.635742 
	C686.414185,415.997406 689.059204,418.672913 699.389160,418.673767 
	C744.887390,418.677429 790.385620,418.665588 835.883850,418.684875 
	C837.967896,418.685730 840.142761,418.286133 842.039734,419.208984 
	C842.477417,421.271301 841.161255,422.285156 840.359497,423.475281 
	C833.377930,433.838165 826.303589,444.139221 819.400391,454.553864 
	C817.670166,457.164154 815.723938,458.391785 812.474976,458.387665 
	C748.644165,458.306732 684.813293,458.308960 620.982483,458.371643 
	C617.968750,458.374603 616.167847,457.423065 614.604675,454.748444 
	C575.934204,388.582703 537.177124,322.467560 498.422089,256.351288 
	C497.601776,254.951797 497.063690,253.262833 495.183472,252.643082 
	C493.014191,253.266220 492.457489,255.411270 491.456055,257.021484 
	C462.420898,303.707733 432.818085,350.056519 404.647400,397.259796 
	C383.416870,432.834045 353.070465,454.514099 312.763794,461.343079 
	C249.580704,472.047943 197.314560,452.450317 158.159485,401.188965 
	C141.320129,379.143066 132.728195,353.672455 130.491501,325.801056 
	C124.424034,250.193710 177.037476,179.101456 256.204285,166.029526 
	C302.693481,158.353271 344.370850,169.836151 380.544830,200.477142 
	C383.770172,203.209167 384.083282,204.885956 380.957245,207.885498 
	C373.383911,215.152420 365.960175,222.591644 358.794525,230.259003 
	C355.871399,233.386795 354.018494,233.528122 350.659241,230.718704 
	C326.971283,210.907806 299.486542,202.676270 268.880951,205.457352 
	C226.327805,209.324066 189.698944,239.638062 177.428940,280.564056 
	C177.094452,281.679749 176.770569,282.798676 176.361557,284.314392 
z"/>
<path fill="#000000" opacity="1.000000" stroke="none" 
	d="
M479.000061,418.670105 
	C501.319519,418.664734 523.139526,418.742889 544.957764,418.575073 
	C548.722717,418.546112 551.078369,419.645996 553.095886,422.894135 
	C559.420898,433.077057 566.054688,443.068207 572.557739,453.140839 
	C573.357849,454.380219 574.318665,455.570648 574.278870,457.765503 
	C520.989624,457.765503 467.772705,457.765503 414.562561,457.765503 
	C414.033234,455.426605 415.370148,454.000397 416.338013,452.524597 
	C422.821167,442.639008 429.473846,432.862396 435.819885,422.890289 
	C437.866638,419.674103 440.272980,418.534515 444.023285,418.601929 
	C455.512238,418.808502 467.007355,418.672943 479.000061,418.670105 
z"/>
<path fill="#000000" opacity="1.000000" stroke="none" 
	d="
M837.653809,438.709045 
	C841.629150,432.934021 845.509094,427.526855 849.163757,421.971558 
	C850.701904,419.633636 852.511536,418.645935 855.322815,418.660767 
	C872.296265,418.750427 889.270386,418.714966 906.244324,418.691711 
	C908.478271,418.688660 910.442627,418.898499 911.941284,420.966309 
	C920.141418,432.280701 928.434753,443.527527 936.668640,454.817535 
	C937.135864,455.458221 937.361023,456.275421 938.029724,457.730469 
	C900.373535,457.730469 863.212036,457.730469 825.404236,457.730469 
	C828.869568,450.678009 833.713196,445.185486 837.653809,438.709045 
z"/>
</svg>