<svg version="1.1" id="Layer_1" xmlns="http://www.w3.org/2000/svg" xmlns:xlink="http://www.w3.org/1999/xlink" x="0px" y="0px"
	 width="100%" viewBox="0 0 1774 887" enable-background="new 0 0 1774 887" xml:space="preserve">
<path fill="#F5F5F5" opacity="1.000000" stroke="none" 
	d="
M1052.000000,888.000000 
	C701.333313,888.000000 351.166656,888.000000 1.000000,888.000000 
	C1.000000,592.333313 1.000000,296.666656 1.000000,1.000000 
	C592.333313,1.000000 1183.666626,1.000000 1775.000000,1.000000 
	C1775.000000,296.666656 1775.000000,592.333313 1775.000000,888.000000 
	C1534.166626,888.000000 1293.333374,888.000000 1052.000000,888.000000 
M1100.904419,169.234741 
	C1100.385498,169.498978 1099.866577,169.763199 1099.135620,170.939392 
	C1099.119751,290.446625 1099.107666,409.953827 1099.072266,529.461060 
	C1099.071045,533.609375 1098.837402,537.757507 1097.816650,541.795410 
	C1084.321655,541.809937 1070.823364,541.665833 1057.333496,541.936279 
	C1053.317383,542.016846 1051.081909,540.601746 1048.963623,537.297913 
	C1025.873413,501.284180 1002.607727,465.383026 979.438538,429.419891 
	C937.505005,364.330811 895.605957,299.219574 853.689209,234.119705 
	C845.243835,221.003540 836.783447,207.897049 828.028442,194.318451 
	C826.896790,195.855255 826.085266,196.837112 825.402588,197.901581 
	C775.150940,276.256317 725.004456,354.678802 674.605896,432.938934 
	C660.564514,454.742767 647.633362,477.344391 629.472290,496.294769 
	C614.713928,511.694519 598.754211,525.442749 579.526550,534.877197 
	C508.625092,569.666260 427.349243,554.051636 373.655701,495.506866 
	C325.814270,443.342987 318.551971,363.940430 356.148987,304.095947 
	C404.682587,226.843323 513.419983,206.597565 587.887939,260.957489 
	C592.153564,264.071350 596.359558,267.267029 601.496155,271.097931 
	C616.492188,255.070953 631.385315,239.153946 646.278442,223.236954 
	C646.935547,223.776260 646.237976,223.075150 645.465027,222.470490 
	C578.764709,170.295685 504.604095,155.036285 423.353821,179.377274 
	C335.746704,205.622665 273.644806,284.096069 268.391937,375.311951 
	C264.255737,447.136932 290.363861,507.342773 344.269531,554.517212 
	C417.597260,618.688416 525.527771,631.349854 613.375671,587.383118 
	C643.114502,572.499207 668.596985,552.004761 686.815613,524.139038 
	C726.174255,463.939545 764.513367,403.073700 803.301147,342.500702 
	C811.258423,330.074127 819.353943,317.736115 827.622498,304.992249 
	C828.762756,306.666077 829.619324,307.865784 830.417175,309.103302 
	C854.319031,346.175385 878.298340,383.197784 902.092957,420.338623 
	C939.552246,478.808624 976.922485,537.335876 1014.179138,595.935120 
	C1016.257019,599.203430 1018.331848,600.268250 1022.099609,600.264832 
	C1135.253662,600.163391 1248.408936,599.950439 1361.560181,600.528992 
	C1373.706909,600.591125 1380.746216,597.316772 1386.800537,586.892883 
	C1396.295898,570.544434 1407.432495,555.149231 1418.372192,538.596497 
	C1415.856689,538.596497 1414.086548,538.596558 1412.316406,538.596497 
	C1334.325562,538.592712 1256.334839,538.588684 1178.343994,538.585510 
	C1168.436401,538.585083 1164.249634,535.819031 1160.824951,526.046387 
	C1160.709961,523.221863 1160.494873,520.397400 1160.494751,517.572876 
	C1160.490356,417.638336 1160.496826,317.703796 1160.564575,217.769272 
	C1160.566528,214.856552 1160.252563,212.472946 1156.766724,210.900284 
	C1151.994873,207.310684 1147.252930,203.680527 1142.445435,200.139236 
	C1128.703613,190.016647 1114.935059,179.930130 1101.158691,169.867691 
	C1101.158691,169.867691 1101.177368,169.845184 1100.904419,169.234741 
M744.656677,551.138306 
	C734.067749,567.203796 723.478760,583.269287 712.612061,599.756226 
	C791.327332,599.756226 869.241821,599.756226 947.658813,599.756226 
	C946.911072,598.474060 946.533508,597.759766 946.095276,597.084839 
	C934.216919,578.791565 922.148499,560.617188 910.586426,542.126221 
	C907.908752,537.843811 905.100586,536.484314 900.261841,536.502625 
	C857.110168,536.665894 813.946960,537.119507 770.811951,536.252747 
	C758.359131,536.002502 749.737732,538.691101 744.656677,551.138306 
M1402.095703,584.570312 
	C1398.838867,589.527527 1395.582031,594.484680 1392.037964,599.879150 
	C1449.921265,599.879150 1507.196045,599.879150 1565.102051,599.879150 
	C1563.849609,597.994202 1563.011963,596.604065 1562.050293,595.305908 
	C1548.966553,577.643860 1535.807861,560.036682 1522.830200,542.297241 
	C1520.833984,539.568604 1518.695068,538.576599 1515.372070,538.592896 
	C1489.225342,538.721008 1463.077393,538.735535 1436.930542,538.622192 
	C1433.719116,538.608337 1431.759033,539.590942 1430.007080,542.288147 
	C1420.938721,556.248474 1411.690918,570.092163 1402.095703,584.570312 
M1526.958130,713.279358 
	C1527.573242,713.876526 1528.184326,714.988831 1528.803955,714.993530 
	C1537.785522,715.062134 1546.817261,715.552429 1555.737671,714.785889 
	C1565.703979,713.929504 1571.529053,705.919006 1569.011353,696.511658 
	C1567.937500,692.499146 1564.326904,689.165527 1561.707520,685.283997 
	C1565.942261,681.790588 1567.105103,676.340088 1565.192627,670.305603 
	C1563.266724,664.228516 1558.446777,661.034424 1552.451660,660.668884 
	C1544.062134,660.157471 1535.618286,660.539917 1526.962402,660.539917 
	C1526.962402,678.052368 1526.962402,695.183228 1526.958130,713.279358 
M446.930237,714.728516 
	C448.232025,715.014221 449.523499,715.363586 450.837158,715.576050 
	C471.918701,718.986023 489.126343,701.337891 484.358887,681.210571 
	C481.233704,668.016602 469.667542,659.253296 455.724976,659.515320 
	C441.964600,659.773987 430.277649,669.155457 428.005066,681.766907 
	C425.294006,696.811462 431.791992,708.508301 446.930237,714.728516 
M837.704956,691.345825 
	C843.527222,685.948792 844.453125,679.202087 842.282776,672.085083 
	C840.114197,664.974365 834.582642,661.069458 827.406799,660.639099 
	C818.515320,660.105774 809.567444,660.511353 800.526978,660.511353 
	C800.526978,678.819641 800.526978,696.830078 800.526978,714.789307 
	C804.496155,714.789307 808.046570,714.789307 811.971802,714.789307 
	C811.971802,708.465454 811.971802,702.521118 811.971802,696.635742 
	C820.654480,695.632751 820.654907,695.632507 824.961365,702.577576 
	C827.065308,705.970825 829.058105,709.441101 831.332336,712.716003 
	C832.077332,713.788818 833.500793,714.942139 834.700317,715.044250 
	C838.293518,715.349854 841.929382,715.154175 846.089966,715.154175 
	C841.470581,707.922180 837.232422,701.287048 833.002075,694.664001 
	C834.680542,693.522766 835.914551,692.683655 837.704956,691.345825 
M635.707703,711.283264 
	C646.296265,703.885132 650.347290,692.987549 647.222046,680.309326 
	C644.475098,669.166138 636.081116,661.488586 624.330872,660.546692 
	C616.280273,659.901306 608.136169,660.423035 599.849548,660.423035 
	C599.849548,678.766235 599.849548,696.802795 599.849548,715.168274 
	C605.064209,715.168274 609.879089,715.096069 614.690979,715.185425 
	C621.721069,715.315857 628.713806,715.356262 635.707703,711.283264 
M988.854370,674.442932 
	C988.854370,676.900085 988.854370,679.357300 988.854370,681.916809 
	C981.026184,681.916809 973.648560,681.916809 965.677979,681.916809 
	C965.677979,674.551941 965.677979,667.499268 965.677979,660.560059 
	C961.651062,660.560059 958.226685,660.560059 954.695496,660.560059 
	C954.695496,678.872559 954.695496,696.876770 954.695496,714.834412 
	C958.570312,714.834412 961.990906,714.834412 965.911865,714.834412 
	C965.911865,707.294067 965.911865,700.044067 965.911865,692.858643 
	C973.799622,692.858643 981.167053,692.858643 989.028442,692.858643 
	C989.028442,700.485352 989.028442,707.710815 989.028442,714.964111 
	C992.975464,714.964111 996.409912,714.964111 1000.230469,714.964111 
	C1000.230469,697.453003 1000.234558,680.174927 1000.217468,662.896790 
	C1000.216675,662.092346 1000.026306,661.287964 999.940430,660.611328 
	C996.180908,660.611328 992.619995,660.611328 988.855896,660.611328 
	C988.855896,665.156006 988.855896,669.309998 988.854370,674.442932 
M549.183350,702.753052 
	C539.398560,708.622864 531.001770,704.107422 530.817932,692.840515 
	C530.744690,688.347900 530.806641,683.853088 530.806763,679.359314 
	C530.806885,673.099854 530.806763,666.840393 530.806763,660.575745 
	C526.567566,660.575745 523.007202,660.575745 519.172546,660.575745 
	C519.172546,672.880798 518.668701,684.867737 519.312805,696.792664 
	C519.971008,708.979736 529.626770,716.318420 542.929565,715.896790 
	C555.715210,715.491516 564.076782,707.848083 564.483093,695.703186 
	C564.788940,686.558899 564.574341,677.397278 564.589233,668.243347 
	C564.593445,665.638672 564.589905,663.034058 564.589905,660.646912 
	C560.322266,660.646912 556.760864,660.646912 552.868896,660.646912 
	C552.868896,671.537109 553.110657,682.016907 552.726074,692.473633 
	C552.605957,695.741211 550.795776,698.946594 549.183350,702.753052 
M1493.977173,698.372009 
	C1489.601929,686.878662 1485.284912,675.362305 1480.778076,663.920837 
	C1480.212891,662.486023 1478.804443,660.603516 1477.517090,660.361267 
	C1469.808594,658.910400 1468.306885,659.927124 1465.478394,667.270325 
	C1464.102417,670.842896 1462.635742,674.380554 1461.257080,677.952148 
	C1456.552979,690.139587 1451.869995,702.335144 1446.918701,715.204041 
	C1450.590454,715.204041 1453.583130,715.427307 1456.511719,715.091187 
	C1457.640503,714.961609 1459.416626,713.670776 1459.548218,712.721924 
	C1460.679932,704.561340 1465.670776,702.727783 1472.888916,703.980591 
	C1474.342407,704.232910 1475.922363,704.229431 1477.370483,703.955750 
	C1482.767944,702.935669 1485.544922,705.211304 1486.779541,710.437317 
	C1487.192871,712.186340 1488.781738,714.628235 1490.239990,714.958740 
	C1493.319702,715.656799 1496.667725,715.171204 1500.538940,715.171204 
	C1498.211914,709.254272 1496.216919,704.181580 1493.977173,698.372009 
M721.645325,708.009888 
	C720.742676,710.207764 719.840088,712.405640 718.741211,715.081299 
	C722.590759,715.081299 725.596802,715.291199 728.547119,714.976807 
	C729.706848,714.853149 731.584351,713.669556 731.703064,712.778015 
	C732.894897,703.827698 738.875000,703.063904 746.019287,703.978088 
	C747.164856,704.124634 748.378174,704.166931 749.505371,703.959473 
	C754.858521,702.974060 757.746216,705.069153 758.823242,710.466370 
	C759.166077,712.184570 760.814514,714.615112 762.263306,714.938599 
	C765.347595,715.627380 768.692505,715.149109 772.535645,715.149109 
	C765.819336,697.650208 759.379395,680.956787 753.028076,664.229797 
	C752.091736,661.763611 751.331055,659.534668 747.957214,660.216919 
	C744.601868,660.895325 740.566101,658.472778 738.571594,664.029785 
	C733.354187,678.566345 727.493713,692.872009 721.645325,708.009888 
M1165.495850,660.267761 
	C1159.063110,660.267761 1152.630493,660.267761 1145.979614,660.267761 
	C1145.979614,678.237915 1145.977173,695.536316 1145.989502,712.834656 
	C1145.989990,713.463684 1146.135010,714.092651 1146.226562,714.833679 
	C1157.968994,714.833679 1169.496582,714.833679 1181.056396,714.833679 
	C1181.056396,711.442932 1181.056396,708.388855 1181.056396,704.897949 
	C1172.944702,704.897949 1165.199219,704.897949 1157.327515,704.897949 
	C1157.327515,700.513855 1157.327515,696.576355 1157.327515,692.101562 
	C1163.926880,692.101562 1170.323730,692.101562 1176.754883,692.101562 
	C1176.754883,688.628052 1176.754883,685.697205 1176.754883,682.126831 
	C1170.152588,682.126831 1163.775146,682.126831 1157.389893,682.126831 
	C1157.389893,677.893799 1157.389893,674.313293 1157.389893,670.238281 
	C1165.416870,670.238281 1173.159180,670.238281 1180.783936,670.238281 
	C1180.783936,666.667908 1180.783936,663.612671 1180.783936,660.269165 
	C1175.770508,660.269165 1171.131958,660.269165 1165.495850,660.267761 
M1230.510742,715.139465 
	C1241.349365,717.266052 1250.890625,715.249634 1258.211670,707.062134 
	C1255.538208,704.392151 1253.135376,701.992432 1250.737793,699.597961 
	C1241.893311,706.630310 1232.587036,707.025330 1226.136353,700.570740 
	C1219.900757,694.331421 1219.386475,683.123657 1225.023315,676.312439 
	C1231.387085,668.622864 1240.199585,668.513794 1250.767578,675.765503 
	C1253.380859,673.412720 1255.939331,671.109253 1258.491699,668.811340 
	C1250.041382,659.650391 1237.556030,657.056519 1226.003296,661.949646 
	C1215.298584,666.483582 1208.709839,677.186951 1209.310181,689.067261 
	C1209.969360,702.108215 1217.087646,711.148560 1230.510742,715.139465 
M297.963684,712.598755 
	C311.278290,718.806396 325.885559,716.119446 332.545105,706.182434 
	C330.266327,703.807922 327.977844,701.423340 325.721069,699.071838 
	C315.778320,706.703735 306.475555,707.052063 299.942169,700.237366 
	C293.762054,693.791199 293.465790,682.918335 299.280670,675.958923 
	C305.417389,668.614258 314.096039,668.624207 325.102722,675.723145 
	C327.767029,673.364014 330.350739,671.076294 332.928589,668.793823 
	C323.883484,659.626465 311.657227,656.995972 300.550293,661.752075 
	C290.448364,666.077942 284.860992,673.923279 283.824005,684.749634 
	C282.693237,696.555054 287.000671,705.927795 297.963684,712.598755 
M889.606995,698.721191 
	C884.329346,689.511047 885.310669,680.100464 892.160706,674.233887 
	C898.895325,668.466125 907.059692,669.004089 915.155273,675.729980 
	C915.375427,675.912903 915.740723,675.921082 915.237305,675.769470 
	C918.164001,673.280762 920.782471,671.054138 923.386963,668.839417 
	C915.061584,659.641235 902.218018,657.009766 890.792419,661.986572 
	C879.759277,666.792419 873.436340,678.159180 874.719421,690.880920 
	C875.988159,703.460388 884.267517,712.651062 896.773926,715.363159 
	C907.310303,717.648071 918.777283,713.689758 923.313904,706.034180 
	C920.880493,703.705811 918.413513,701.345276 915.983459,699.020142 
	C906.747070,707.244995 898.190613,707.230347 889.606995,698.721191 
M1101.970093,712.076172 
	C1101.970093,698.344421 1101.970093,684.612610 1101.970093,670.460815 
	C1107.338135,670.460815 1111.948608,670.460815 1116.631348,670.460815 
	C1116.631348,666.933105 1116.631348,663.842346 1116.631348,660.490845 
	C1103.156006,660.490845 1089.937378,660.490845 1076.403320,660.490845 
	C1076.403320,663.845215 1076.403320,666.928223 1076.403320,670.747742 
	C1081.102051,670.747742 1085.805298,670.747742 1090.822266,670.747742 
	C1090.822266,685.907043 1090.822266,700.336609 1090.822266,715.183655 
	C1093.958618,715.183655 1096.767822,715.356506 1099.532837,715.082581 
	C1100.408325,714.995850 1101.165527,713.716125 1101.970093,712.076172 
M1309.484619,660.229736 
	C1300.705811,660.229736 1291.927002,660.229736 1282.994385,660.229736 
	C1282.994385,663.987000 1282.994385,667.211731 1282.994385,671.014038 
	C1287.743042,671.014038 1292.155151,671.014038 1296.955078,671.014038 
	C1296.955078,686.004211 1296.955078,700.417297 1296.955078,715.011353 
	C1300.818115,715.011353 1304.264771,715.011353 1308.191040,715.011353 
	C1308.191040,700.223694 1308.191040,685.629883 1308.191040,670.469604 
	C1313.210205,670.469604 1317.758057,670.469604 1322.202393,670.469604 
	C1322.202393,666.778320 1322.202393,663.670105 1322.202393,660.230469 
	C1318.086548,660.230469 1314.281738,660.230469 1309.484619,660.229736 
M364.089996,679.500610 
	C364.089996,691.257568 364.089996,703.014526 364.089996,714.884644 
	C375.293732,714.884644 386.011932,714.884644 396.889191,714.884644 
	C396.889191,711.472717 396.889191,708.352234 396.889191,704.710815 
	C389.816620,704.710815 382.914703,704.710815 375.520233,704.710815 
	C375.520233,689.642639 375.520233,675.088623 375.520233,660.644531 
	C371.462280,660.644531 367.924408,660.644531 364.087250,660.644531 
	C364.087250,666.880798 364.087250,672.690918 364.089996,679.500610 
M1390.626221,708.336060 
	C1390.626221,710.473816 1390.626221,712.611511 1390.626221,714.951904 
	C1401.724365,714.951904 1412.343384,714.951904 1423.275635,714.951904 
	C1423.275635,711.542480 1423.275635,708.323486 1423.275635,704.592041 
	C1416.039795,704.592041 1409.132446,704.592041 1401.927368,704.592041 
	C1401.927368,689.638306 1401.927368,675.195190 1401.927368,660.612671 
	C1398.059326,660.612671 1394.527832,660.612671 1390.627319,660.612671 
	C1390.627319,676.420837 1390.627319,691.896118 1390.626221,708.336060 
M1046.284302,711.527222 
	C1046.284302,694.477173 1046.284302,677.427185 1046.284302,660.628052 
	C1042.095093,660.628052 1038.667725,660.628052 1035.174194,660.628052 
	C1035.174194,678.887817 1035.174194,696.793640 1035.174194,715.128845 
	C1038.387817,715.128845 1041.359497,715.302917 1044.283813,715.008179 
	C1045.028320,714.933167 1045.622681,713.369690 1046.284302,711.527222 
z"/>
<path fill="#06162F" opacity="1.000000" stroke="none" 
	d="
M1101.177002,169.829407 
	C1114.935059,179.930130 1128.703613,190.016647 1142.445435,200.139236 
	C1147.252930,203.680527 1151.994873,207.310684 1157.036011,211.564209 
	C1157.868896,214.588318 1158.918091,216.947311 1158.923950,219.308853 
	C1159.023804,260.257141 1158.994629,301.205719 1158.995239,342.154266 
	C1158.996338,401.912506 1158.982300,461.670746 1159.075317,521.428833 
	C1159.078247,523.280762 1160.196655,525.130981 1160.794922,526.981995 
	C1164.249634,535.819031 1168.436401,538.585083 1178.343994,538.585510 
	C1256.334839,538.588684 1334.325562,538.592712 1412.316406,538.596497 
	C1414.086548,538.596558 1415.856689,538.596497 1418.372192,538.596497 
	C1407.432495,555.149231 1396.295898,570.544434 1386.800537,586.892883 
	C1380.746216,597.316772 1373.706909,600.591125 1361.560181,600.528992 
	C1248.408936,599.950439 1135.253662,600.163391 1022.099609,600.264832 
	C1018.331848,600.268250 1016.257019,599.203430 1014.179138,595.935120 
	C976.922485,537.335876 939.552246,478.808624 902.092957,420.338623 
	C878.298340,383.197784 854.319031,346.175385 830.417175,309.103302 
	C829.619324,307.865784 828.762756,306.666077 827.622498,304.992249 
	C819.353943,317.736115 811.258423,330.074127 803.301147,342.500702 
	C764.513367,403.073700 726.174255,463.939545 686.815613,524.139038 
	C668.596985,552.004761 643.114502,572.499207 613.375671,587.383118 
	C525.527771,631.349854 417.597260,618.688416 344.269531,554.517212 
	C290.363861,507.342773 264.255737,447.136932 268.391937,375.311951 
	C273.644806,284.096069 335.746704,205.622665 423.353821,179.377274 
	C504.604095,155.036285 578.764709,170.295685 645.465027,222.470490 
	C646.237976,223.075150 646.935547,223.776260 646.278442,223.236954 
	C631.385315,239.153946 616.492188,255.070953 601.496155,271.097931 
	C596.359558,267.267029 592.153564,264.071350 587.887939,260.957489 
	C513.419983,206.597565 404.682587,226.843323 356.148987,304.095947 
	C318.551971,363.940430 325.814270,443.342987 373.655701,495.506866 
	C427.349243,554.051636 508.625092,569.666260 579.526550,534.877197 
	C598.754211,525.442749 614.713928,511.694519 629.472290,496.294769 
	C647.633362,477.344391 660.564514,454.742767 674.605896,432.938934 
	C725.004456,354.678802 775.150940,276.256317 825.402588,197.901581 
	C826.085266,196.837112 826.896790,195.855255 828.028442,194.318451 
	C836.783447,207.897049 845.243835,221.003540 853.689209,234.119705 
	C895.605957,299.219574 937.505005,364.330811 979.438538,429.419891 
	C1002.607727,465.383026 1025.873413,501.284180 1048.963623,537.297913 
	C1051.081909,540.601746 1053.317383,542.016846 1057.333496,541.936279 
	C1070.823364,541.665833 1084.321655,541.809937 1098.677002,541.788025 
	C1100.022949,539.844482 1100.932373,537.908508 1100.933472,535.972046 
	C1101.000000,421.248199 1100.988159,306.524292 1100.998291,191.800400 
	C1100.998901,184.476730 1101.114746,177.153061 1101.177002,169.829407 
z"/>
<path fill="#06152E" opacity="1.000000" stroke="none" 
	d="
M744.843689,550.829590 
	C749.737732,538.691101 758.359131,536.002502 770.811951,536.252747 
	C813.946960,537.119507 857.110168,536.665894 900.261841,536.502625 
	C905.100586,536.484314 907.908752,537.843811 910.586426,542.126221 
	C922.148499,560.617188 934.216919,578.791565 946.095276,597.084839 
	C946.533508,597.759766 946.911072,598.474060 947.658813,599.756226 
	C869.241821,599.756226 791.327332,599.756226 712.612061,599.756226 
	C723.478760,583.269287 734.067749,567.203796 744.843689,550.829590 
z"/>
<path fill="#F27713" opacity="1.000000" stroke="none" 
	d="
M1402.300537,584.273376 
	C1411.690918,570.092163 1420.938721,556.248474 1430.007080,542.288147 
	C1431.759033,539.590942 1433.719116,538.608337 1436.930542,538.622192 
	C1463.077393,538.735535 1489.225342,538.721008 1515.372070,538.592896 
	C1518.695068,538.576599 1520.833984,539.568604 1522.830200,542.297241 
	C1535.807861,560.036682 1548.966553,577.643860 1562.050293,595.305908 
	C1563.011963,596.604065 1563.849609,597.994202 1565.102051,599.879150 
	C1507.196045,599.879150 1449.921265,599.879150 1392.037964,599.879150 
	C1395.582031,594.484680 1398.838867,589.527527 1402.300537,584.273376 
z"/>
<path fill="#0D1B33" opacity="1.000000" stroke="none" 
	d="
M1526.960205,712.796692 
	C1526.962402,695.183228 1526.962402,678.052368 1526.962402,660.539917 
	C1535.618286,660.539917 1544.062134,660.157471 1552.451660,660.668884 
	C1558.446777,661.034424 1563.266724,664.228516 1565.192627,670.305603 
	C1567.105103,676.340088 1565.942261,681.790588 1561.707520,685.283997 
	C1564.326904,689.165527 1567.937500,692.499146 1569.011353,696.511658 
	C1571.529053,705.919006 1565.703979,713.929504 1555.737671,714.785889 
	C1546.817261,715.552429 1537.785522,715.062134 1528.803955,714.993530 
	C1528.184326,714.988831 1527.573242,713.876526 1526.960205,712.796692 
M1539.672119,705.389771 
	C1543.996338,705.341431 1548.340454,705.530029 1552.638428,705.169067 
	C1556.031982,704.884033 1557.963379,702.593384 1558.178223,699.138000 
	C1558.393799,695.670715 1556.710938,692.891785 1553.404053,692.539062 
	C1548.409302,692.006348 1543.315918,692.400085 1537.855103,692.400085 
	C1538.173340,696.919312 1538.461304,701.009888 1539.672119,705.389771 
M1540.830688,670.220459 
	C1539.937378,671.062439 1538.372925,671.832703 1538.273804,672.759583 
	C1537.947266,675.816284 1538.150757,678.929565 1538.150757,682.278137 
	C1542.257202,682.278137 1545.730347,682.433105 1549.183472,682.236328 
	C1552.949341,682.021851 1554.899292,679.694214 1554.809082,676.017273 
	C1554.723877,672.543945 1552.672485,670.514587 1549.192139,670.268188 
	C1546.720947,670.093262 1544.228027,670.222778 1540.830688,670.220459 
z"/>
<path fill="#0D1B33" opacity="1.000000" stroke="none" 
	d="
M446.551178,714.598877 
	C431.791992,708.508301 425.294006,696.811462 428.005066,681.766907 
	C430.277649,669.155457 441.964600,659.773987 455.724976,659.515320 
	C469.667542,659.253296 481.233704,668.016602 484.358887,681.210571 
	C489.126343,701.337891 471.918701,718.986023 450.837158,715.576050 
	C449.523499,715.363586 448.232025,715.014221 446.551178,714.598877 
M439.285400,691.720398 
	C442.022278,700.551819 446.893280,704.705994 455.081848,705.191956 
	C462.665466,705.642029 468.802887,701.951843 471.884857,695.088989 
	C474.872742,688.435608 473.193481,679.955688 467.878662,674.858826 
	C462.807709,669.995789 455.443726,668.864075 448.898621,671.941833 
	C441.618927,675.365051 438.462158,681.493835 439.285400,691.720398 
z"/>
<path fill="#101D33" opacity="1.000000" stroke="none" 
	d="
M837.426758,691.595215 
	C835.914551,692.683655 834.680542,693.522766 833.002075,694.664001 
	C837.232422,701.287048 841.470581,707.922180 846.089966,715.154175 
	C841.929382,715.154175 838.293518,715.349854 834.700317,715.044250 
	C833.500793,714.942139 832.077332,713.788818 831.332336,712.716003 
	C829.058105,709.441101 827.065308,705.970825 824.961365,702.577576 
	C820.654907,695.632507 820.654480,695.632751 811.971802,696.635742 
	C811.971802,702.521118 811.971802,708.465454 811.971802,714.789307 
	C808.046570,714.789307 804.496155,714.789307 800.526978,714.789307 
	C800.526978,696.830078 800.526978,678.819641 800.526978,660.511353 
	C809.567444,660.511353 818.515320,660.105774 827.406799,660.639099 
	C834.582642,661.069458 840.114197,664.974365 842.282776,672.085083 
	C844.453125,679.202087 843.527222,685.948792 837.426758,691.595215 
M821.165771,670.360413 
	C818.218750,670.360413 815.271729,670.360413 812.046204,670.360413 
	C812.046204,675.946899 812.046204,680.970215 812.046204,686.354553 
	C815.576050,686.354553 818.856812,686.424011 822.133667,686.339600 
	C828.179932,686.183838 831.574646,683.346802 831.636597,678.520813 
	C831.703735,673.289978 828.659119,670.696594 821.165771,670.360413 
z"/>
<path fill="#0D1A31" opacity="1.000000" stroke="none" 
	d="
M635.394287,711.482910 
	C628.713806,715.356262 621.721069,715.315857 614.690979,715.185425 
	C609.879089,715.096069 605.064209,715.168274 599.849548,715.168274 
	C599.849548,696.802795 599.849548,678.766235 599.849548,660.423035 
	C608.136169,660.423035 616.280273,659.901306 624.330872,660.546692 
	C636.081116,661.488586 644.475098,669.166138 647.222046,680.309326 
	C650.347290,692.987549 646.296265,703.885132 635.394287,711.482910 
M616.484680,670.651733 
	C614.737427,670.651733 612.990112,670.651733 611.279297,670.651733 
	C611.279297,682.410217 611.279297,693.484558 611.279297,704.942139 
	C614.725830,704.942139 617.859314,704.936646 620.992859,704.943237 
	C627.763794,704.957458 632.343872,701.599121 635.033813,695.584229 
	C640.889221,682.490601 632.540527,670.698059 616.484680,670.651733 
z"/>
<path fill="#0E1C34" opacity="1.000000" stroke="none" 
	d="
M988.855103,673.953430 
	C988.855896,669.309998 988.855896,665.156006 988.855896,660.611328 
	C992.619995,660.611328 996.180908,660.611328 999.940430,660.611328 
	C1000.026306,661.287964 1000.216675,662.092346 1000.217468,662.896790 
	C1000.234558,680.174927 1000.230469,697.453003 1000.230469,714.964111 
	C996.409912,714.964111 992.975464,714.964111 989.028442,714.964111 
	C989.028442,707.710815 989.028442,700.485352 989.028442,692.858643 
	C981.167053,692.858643 973.799622,692.858643 965.911865,692.858643 
	C965.911865,700.044067 965.911865,707.294067 965.911865,714.834412 
	C961.990906,714.834412 958.570312,714.834412 954.695496,714.834412 
	C954.695496,696.876770 954.695496,678.872559 954.695496,660.560059 
	C958.226685,660.560059 961.651062,660.560059 965.677979,660.560059 
	C965.677979,667.499268 965.677979,674.551941 965.677979,681.916809 
	C973.648560,681.916809 981.026184,681.916809 988.854370,681.916809 
	C988.854370,679.357300 988.854370,676.900085 988.855103,673.953430 
z"/>
<path fill="#121E34" opacity="1.000000" stroke="none" 
	d="
M549.471313,702.466797 
	C550.795776,698.946594 552.605957,695.741211 552.726074,692.473633 
	C553.110657,682.016907 552.868896,671.537109 552.868896,660.646912 
	C556.760864,660.646912 560.322266,660.646912 564.589905,660.646912 
	C564.589905,663.034058 564.593445,665.638672 564.589233,668.243347 
	C564.574341,677.397278 564.788940,686.558899 564.483093,695.703186 
	C564.076782,707.848083 555.715210,715.491516 542.929565,715.896790 
	C529.626770,716.318420 519.971008,708.979736 519.312805,696.792664 
	C518.668701,684.867737 519.172546,672.880798 519.172546,660.575745 
	C523.007202,660.575745 526.567566,660.575745 530.806763,660.575745 
	C530.806763,666.840393 530.806885,673.099854 530.806763,679.359314 
	C530.806641,683.853088 530.744690,688.347900 530.817932,692.840515 
	C531.001770,704.107422 539.398560,708.622864 549.471313,702.466797 
z"/>
<path fill="#0F1D34" opacity="1.000000" stroke="none" 
	d="
M1494.099609,698.740417 
	C1496.216919,704.181580 1498.211914,709.254272 1500.538940,715.171204 
	C1496.667725,715.171204 1493.319702,715.656799 1490.239990,714.958740 
	C1488.781738,714.628235 1487.192871,712.186340 1486.779541,710.437317 
	C1485.544922,705.211304 1482.767944,702.935669 1477.370483,703.955750 
	C1475.922363,704.229431 1474.342407,704.232910 1472.888916,703.980591 
	C1465.670776,702.727783 1460.679932,704.561340 1459.548218,712.721924 
	C1459.416626,713.670776 1457.640503,714.961609 1456.511719,715.091187 
	C1453.583130,715.427307 1450.590454,715.204041 1446.918701,715.204041 
	C1451.869995,702.335144 1456.552979,690.139587 1461.257080,677.952148 
	C1462.635742,674.380554 1464.102417,670.842896 1465.478394,667.270325 
	C1468.306885,659.927124 1469.808594,658.910400 1477.517090,660.361267 
	C1478.804443,660.603516 1480.212891,662.486023 1480.778076,663.920837 
	C1485.284912,675.362305 1489.601929,686.878662 1494.099609,698.740417 
M1471.772095,680.218811 
	C1470.145264,684.690186 1468.518433,689.161499 1466.779663,693.940918 
	C1471.538696,693.940918 1475.859253,693.940918 1480.742920,693.940918 
	C1478.470459,687.557007 1476.360962,681.630798 1473.891235,674.692749 
	C1472.952271,677.067322 1472.477173,678.269043 1471.772095,680.218811 
z"/>
<path fill="#0E1B32" opacity="1.000000" stroke="none" 
	d="
M721.767456,707.639832 
	C727.493713,692.872009 733.354187,678.566345 738.571594,664.029785 
	C740.566101,658.472778 744.601868,660.895325 747.957214,660.216919 
	C751.331055,659.534668 752.091736,661.763611 753.028076,664.229797 
	C759.379395,680.956787 765.819336,697.650208 772.535645,715.149109 
	C768.692505,715.149109 765.347595,715.627380 762.263306,714.938599 
	C760.814514,714.615112 759.166077,712.184570 758.823242,710.466370 
	C757.746216,705.069153 754.858521,702.974060 749.505371,703.959473 
	C748.378174,704.166931 747.164856,704.124634 746.019287,703.978088 
	C738.875000,703.063904 732.894897,703.827698 731.703064,712.778015 
	C731.584351,713.669556 729.706848,714.853149 728.547119,714.976807 
	C725.596802,715.291199 722.590759,715.081299 718.741211,715.081299 
	C719.840088,712.405640 720.742676,710.207764 721.767456,707.639832 
M748.220398,681.286865 
	C747.563538,679.492737 746.906677,677.698608 745.807190,674.695435 
	C743.157593,681.910400 740.985596,687.824768 738.699036,694.051147 
	C743.657959,694.051147 747.924194,694.051147 752.668945,694.051147 
	C751.211121,689.787354 749.880493,685.895569 748.220398,681.286865 
z"/>
<path fill="#0D1B33" opacity="1.000000" stroke="none" 
	d="
M1165.994629,660.268433 
	C1171.131958,660.269165 1175.770508,660.269165 1180.783936,660.269165 
	C1180.783936,663.612671 1180.783936,666.667908 1180.783936,670.238281 
	C1173.159180,670.238281 1165.416870,670.238281 1157.389893,670.238281 
	C1157.389893,674.313293 1157.389893,677.893799 1157.389893,682.126831 
	C1163.775146,682.126831 1170.152588,682.126831 1176.754883,682.126831 
	C1176.754883,685.697205 1176.754883,688.628052 1176.754883,692.101562 
	C1170.323730,692.101562 1163.926880,692.101562 1157.327515,692.101562 
	C1157.327515,696.576355 1157.327515,700.513855 1157.327515,704.897949 
	C1165.199219,704.897949 1172.944702,704.897949 1181.056396,704.897949 
	C1181.056396,708.388855 1181.056396,711.442932 1181.056396,714.833679 
	C1169.496582,714.833679 1157.968994,714.833679 1146.226562,714.833679 
	C1146.135010,714.092651 1145.989990,713.463684 1145.989502,712.834656 
	C1145.977173,695.536316 1145.979614,678.237915 1145.979614,660.267761 
	C1152.630493,660.267761 1159.063110,660.267761 1165.994629,660.268433 
z"/>
<path fill="#0E1B32" opacity="1.000000" stroke="none" 
	d="
M1230.105103,715.050598 
	C1217.087646,711.148560 1209.969360,702.108215 1209.310181,689.067261 
	C1208.709839,677.186951 1215.298584,666.483582 1226.003296,661.949646 
	C1237.556030,657.056519 1250.041382,659.650391 1258.491699,668.811340 
	C1255.939331,671.109253 1253.380859,673.412720 1250.767578,675.765503 
	C1240.199585,668.513794 1231.387085,668.622864 1225.023315,676.312439 
	C1219.386475,683.123657 1219.900757,694.331421 1226.136353,700.570740 
	C1232.587036,707.025330 1241.893311,706.630310 1250.737793,699.597961 
	C1253.135376,701.992432 1255.538208,704.392151 1258.211670,707.062134 
	C1250.890625,715.249634 1241.349365,717.266052 1230.105103,715.050598 
z"/>
<path fill="#0E1C34" opacity="1.000000" stroke="none" 
	d="
M297.648010,712.407593 
	C287.000671,705.927795 282.693237,696.555054 283.824005,684.749634 
	C284.860992,673.923279 290.448364,666.077942 300.550293,661.752075 
	C311.657227,656.995972 323.883484,659.626465 332.928589,668.793823 
	C330.350739,671.076294 327.767029,673.364014 325.102722,675.723145 
	C314.096039,668.624207 305.417389,668.614258 299.280670,675.958923 
	C293.465790,682.918335 293.762054,693.791199 299.942169,700.237366 
	C306.475555,707.052063 315.778320,706.703735 325.721069,699.071838 
	C327.977844,701.423340 330.266327,703.807922 332.545105,706.182434 
	C325.885559,716.119446 311.278290,718.806396 297.648010,712.407593 
z"/>
<path fill="#0D1A32" opacity="1.000000" stroke="none" 
	d="
M889.828247,699.026367 
	C898.190613,707.230347 906.747070,707.244995 915.983459,699.020142 
	C918.413513,701.345276 920.880493,703.705811 923.313904,706.034180 
	C918.777283,713.689758 907.310303,717.648071 896.773926,715.363159 
	C884.267517,712.651062 875.988159,703.460388 874.719421,690.880920 
	C873.436340,678.159180 879.759277,666.792419 890.792419,661.986572 
	C902.218018,657.009766 915.061584,659.641235 923.386963,668.839417 
	C920.782471,671.054138 918.164001,673.280762 915.237305,675.769470 
	C915.740723,675.921082 915.375427,675.912903 915.155273,675.729980 
	C907.059692,669.004089 898.895325,668.466125 892.160706,674.233887 
	C885.310669,680.100464 884.329346,689.511047 889.828247,699.026367 
z"/>
<path fill="#101E35" opacity="1.000000" stroke="none" 
	d="
M1101.973511,712.529297 
	C1101.165527,713.716125 1100.408325,714.995850 1099.532837,715.082581 
	C1096.767822,715.356506 1093.958618,715.183655 1090.822266,715.183655 
	C1090.822266,700.336609 1090.822266,685.907043 1090.822266,670.747742 
	C1085.805298,670.747742 1081.102051,670.747742 1076.403320,670.747742 
	C1076.403320,666.928223 1076.403320,663.845215 1076.403320,660.490845 
	C1089.937378,660.490845 1103.156006,660.490845 1116.631348,660.490845 
	C1116.631348,663.842346 1116.631348,666.933105 1116.631348,670.460815 
	C1111.948608,670.460815 1107.338135,670.460815 1101.970093,670.460815 
	C1101.970093,684.612610 1101.970093,698.344421 1101.973511,712.529297 
z"/>
<path fill="#101D33" opacity="1.000000" stroke="none" 
	d="
M1309.980713,660.230103 
	C1314.281738,660.230469 1318.086548,660.230469 1322.202393,660.230469 
	C1322.202393,663.670105 1322.202393,666.778320 1322.202393,670.469604 
	C1317.758057,670.469604 1313.210205,670.469604 1308.191040,670.469604 
	C1308.191040,685.629883 1308.191040,700.223694 1308.191040,715.011353 
	C1304.264771,715.011353 1300.818115,715.011353 1296.955078,715.011353 
	C1296.955078,700.417297 1296.955078,686.004211 1296.955078,671.014038 
	C1292.155151,671.014038 1287.743042,671.014038 1282.994385,671.014038 
	C1282.994385,667.211731 1282.994385,663.987000 1282.994385,660.229736 
	C1291.927002,660.229736 1300.705811,660.229736 1309.980713,660.230103 
z"/>
<path fill="#101E35" opacity="1.000000" stroke="none" 
	d="
M364.088623,679.000793 
	C364.087250,672.690918 364.087250,666.880798 364.087250,660.644531 
	C367.924408,660.644531 371.462280,660.644531 375.520233,660.644531 
	C375.520233,675.088623 375.520233,689.642639 375.520233,704.710815 
	C382.914703,704.710815 389.816620,704.710815 396.889191,704.710815 
	C396.889191,708.352234 396.889191,711.472717 396.889191,714.884644 
	C386.011932,714.884644 375.293732,714.884644 364.089996,714.884644 
	C364.089996,703.014526 364.089996,691.257568 364.088623,679.000793 
z"/>
<path fill="#0B182F" opacity="1.000000" stroke="none" 
	d="
M1390.626709,707.853760 
	C1390.627319,691.896118 1390.627319,676.420837 1390.627319,660.612671 
	C1394.527832,660.612671 1398.059326,660.612671 1401.927368,660.612671 
	C1401.927368,675.195190 1401.927368,689.638306 1401.927368,704.592041 
	C1409.132446,704.592041 1416.039795,704.592041 1423.275635,704.592041 
	C1423.275635,708.323486 1423.275635,711.542480 1423.275635,714.951904 
	C1412.343384,714.951904 1401.724365,714.951904 1390.626221,714.951904 
	C1390.626221,712.611511 1390.626221,710.473816 1390.626709,707.853760 
z"/>
<path fill="#01051C" opacity="1.000000" stroke="none" 
	d="
M1101.167847,169.848541 
	C1101.114746,177.153061 1100.998901,184.476730 1100.998291,191.800400 
	C1100.988159,306.524292 1101.000000,421.248199 1100.933472,535.972046 
	C1100.932373,537.908508 1100.022949,539.844482 1099.124756,541.843201 
	C1098.837402,537.757507 1099.071045,533.609375 1099.072266,529.461060 
	C1099.107666,409.953827 1099.119751,290.446625 1099.548462,170.480835 
	C1100.366699,169.963257 1100.771973,169.904221 1101.177368,169.845184 
	C1101.177368,169.845184 1101.158691,169.867691 1101.167847,169.848541 
z"/>
<path fill="#0A1831" opacity="1.000000" stroke="none" 
	d="
M1046.285156,712.008667 
	C1045.622681,713.369690 1045.028320,714.933167 1044.283813,715.008179 
	C1041.359497,715.302917 1038.387817,715.128845 1035.174194,715.128845 
	C1035.174194,696.793640 1035.174194,678.887817 1035.174194,660.628052 
	C1038.667725,660.628052 1042.095093,660.628052 1046.284302,660.628052 
	C1046.284302,677.427185 1046.284302,694.477173 1046.285156,712.008667 
z"/>
<path fill="#0A0C21" opacity="1.000000" stroke="none" 
	d="
M1160.809937,526.514160 
	C1160.196655,525.130981 1159.078247,523.280762 1159.075317,521.428833 
	C1158.982300,461.670746 1158.996338,401.912506 1158.995239,342.154266 
	C1158.994629,301.205719 1159.023804,260.257141 1158.923950,219.308853 
	C1158.918091,216.947311 1157.868896,214.588318 1157.220947,211.819824 
	C1160.252563,212.472946 1160.566528,214.856552 1160.564575,217.769272 
	C1160.496826,317.703796 1160.490356,417.638336 1160.494751,517.572876 
	C1160.494873,520.397400 1160.709961,523.221863 1160.809937,526.514160 
z"/>
<path fill="#06162F" opacity="1.000000" stroke="none" 
	d="
M1101.040894,169.539963 
	C1100.771973,169.904221 1100.366699,169.963257 1099.654541,170.024841 
	C1099.866577,169.763199 1100.385498,169.498978 1101.040894,169.539963 
z"/>
<path fill="#E9EAEC" opacity="1.000000" stroke="none" 
	d="
M1539.210693,705.245117 
	C1538.461304,701.009888 1538.173340,696.919312 1537.855103,692.400085 
	C1543.315918,692.400085 1548.409302,692.006348 1553.404053,692.539062 
	C1556.710938,692.891785 1558.393799,695.670715 1558.178223,699.138000 
	C1557.963379,702.593384 1556.031982,704.884033 1552.638428,705.169067 
	C1548.340454,705.530029 1543.996338,705.341431 1539.210693,705.245117 
z"/>
<path fill="#E5E7E9" opacity="1.000000" stroke="none" 
	d="
M1541.287842,670.218445 
	C1544.228027,670.222778 1546.720947,670.093262 1549.192139,670.268188 
	C1552.672485,670.514587 1554.723877,672.543945 1554.809082,676.017273 
	C1554.899292,679.694214 1552.949341,682.021851 1549.183472,682.236328 
	C1545.730347,682.433105 1542.257202,682.278137 1538.150757,682.278137 
	C1538.150757,678.929565 1537.947266,675.816284 1538.273804,672.759583 
	C1538.372925,671.832703 1539.937378,671.062439 1541.287842,670.218445 
z"/>
<path fill="#EEEFF0" opacity="1.000000" stroke="none" 
	d="
M439.211609,691.306274 
	C438.462158,681.493835 441.618927,675.365051 448.898621,671.941833 
	C455.443726,668.864075 462.807709,669.995789 467.878662,674.858826 
	C473.193481,679.955688 474.872742,688.435608 471.884857,695.088989 
	C468.802887,701.951843 462.665466,705.642029 455.081848,705.191956 
	C446.893280,704.705994 442.022278,700.551819 439.211609,691.306274 
z"/>
<path fill="#E9EAEC" opacity="1.000000" stroke="none" 
	d="
M821.607788,670.357666 
	C828.659119,670.696594 831.703735,673.289978 831.636597,678.520813 
	C831.574646,683.346802 828.179932,686.183838 822.133667,686.339600 
	C818.856812,686.424011 815.576050,686.354553 812.046204,686.354553 
	C812.046204,680.970215 812.046204,675.946899 812.046204,670.360413 
	C815.271729,670.360413 818.218750,670.360413 821.607788,670.357666 
z"/>
<path fill="#EEEFF0" opacity="1.000000" stroke="none" 
	d="
M616.964600,670.649658 
	C632.540527,670.698059 640.889221,682.490601 635.033813,695.584229 
	C632.343872,701.599121 627.763794,704.957458 620.992859,704.943237 
	C617.859314,704.936646 614.725830,704.942139 611.279297,704.942139 
	C611.279297,693.484558 611.279297,682.410217 611.279297,670.651733 
	C612.990112,670.651733 614.737427,670.651733 616.964600,670.649658 
z"/>
<path fill="#E5E7E9" opacity="1.000000" stroke="none" 
	d="
M1471.887085,679.844727 
	C1472.477173,678.269043 1472.952271,677.067322 1473.891235,674.692749 
	C1476.360962,681.630798 1478.470459,687.557007 1480.742920,693.940918 
	C1475.859253,693.940918 1471.538696,693.940918 1466.779663,693.940918 
	C1468.518433,689.161499 1470.145264,684.690186 1471.887085,679.844727 
z"/>
<path fill="#E5E7E9" opacity="1.000000" stroke="none" 
	d="
M748.385132,681.645325 
	C749.880493,685.895569 751.211121,689.787354 752.668945,694.051147 
	C747.924194,694.051147 743.657959,694.051147 738.699036,694.051147 
	C740.985596,687.824768 743.157593,681.910400 745.807190,674.695435 
	C746.906677,677.698608 747.563538,679.492737 748.385132,681.645325 
z"/>
</svg>